<?xml version="1.0" encoding="utf-8"?>
<!-- Generator: Adobe Illustrator 15.0.0, SVG Export Plug-In . SVG Version: 6.00 Build 0)  -->
<!DOCTYPE svg PUBLIC "-//W3C//DTD SVG 1.1//EN" "http://www.w3.org/Graphics/SVG/1.1/DTD/svg11.dtd">
<svg version="1.1"
	 id="svg3757" xmlns:inkscape="http://www.inkscape.org/namespaces/inkscape" inkscape:version="0.91 r13725" sodipodi:docname="tratamiento.svg" xmlns:cc="http://creativecommons.org/ns#" xmlns:dc="http://purl.org/dc/elements/1.1/" xmlns:rdf="http://www.w3.org/1999/02/22-rdf-syntax-ns#" xmlns:svg="http://www.w3.org/2000/svg" xmlns:sodipodi="http://sodipodi.sourceforge.net/DTD/sodipodi-0.dtd"
	 xmlns="http://www.w3.org/2000/svg" xmlns:xlink="http://www.w3.org/1999/xlink" x="0px" y="0px" width="1142px" height="1142px"
	 viewBox="0 0 1142 1142" enable-background="new 0 0 1142 1142" xml:space="preserve">
<sodipodi:namedview  inkscape:zoom="0.16532399" guidetolerance="10" objecttolerance="10" pagecolor="#ffffff" inkscape:pageopacity="0" inkscape:pageshadow="2" inkscape:window-width="1920" inkscape:window-height="1017" inkscape:window-x="1912" inkscape:window-y="-8" inkscape:window-maximized="1" inkscape:current-layer="svg3757" inkscape:cy="713.75" inkscape:cx="713.75" gridtolerance="10" showgrid="false" borderopacity="1" id="namedview3791" bordercolor="#666666">
	</sodipodi:namedview>
<g>
	<path fill="#575757" d="M101.548,861.244c-8.812,8.369-20.876,11.062-31.743,11.062c-21.836,0-40.598-17.789-40.598-49.866
		c0-26.14,12.701-45.391,36.894-45.391c25.821,0,31.134,18.92,33.528,17.163l4.366-3.038c0.453-0.494,0.921-1.105,0.921-1.744
		v-10.27c0-1.156,0-2.111-1.291-2.762c-4.966-3.025-18.43-9.764-37.681-9.764C31.312,766.636,5,792.281,5,823.74
		c0,34.947,25.018,59.006,61.596,59.006c14.755,0,27.427-1.894,31.265-4.314c1.601-0.962,2.275-2.586,3.21-4.18l5.003-10.77
		C107.487,861.093,103.996,858.981,101.548,861.244z M188.878,828.884c15.232-6.926,21.993-19.92,21.993-32.752
		c-0.157-19.082-14.936-27.589-29.85-27.589h-55.817c-0.959,0-2.116,0.48-2.741,1.932l-1.256,3.031
		c-0.823,1.762,0.618,2.261,3.037,2.894c6.876,1.131,10.107,3.868,10.107,10.606v76.656c0,6.102-4.194,8.645-8.188,9.459
		c-1.106,0.343-2.375,0.485-3.075,2.274l-0.957,2.699c-0.788,2.413,0.813,2.758,2.113,2.758h40.748c1.45,0,2.234-0.521,2.713-1.303
		l1.307-3.187c0.612-1.312,0.318-2.594-1.786-2.899c-7.853-1.794-10.266-2.938-10.266-9.802v-31.253h12.051l25.176,44.58
		c0.788,1.269,1.895,3.863,4.463,3.863h24.086v-5.289C216.309,871.862,203.313,853.875,188.878,828.884z M166.907,823.74h-9.947
		v-46.529h12.839c9.957,0,17.332,4.657,17.626,20.69C187.747,815.547,178.13,823.74,166.907,823.74z M310.716,859.656l-3.995-1.282
		c-2.249-0.661-4.512,12.84-20.213,12.84h-13.167c-8.829,0-11.704-3.062-11.704-15.121v-31.059h31.115
		c2.546,0,4.046-0.507,5.128-2.275l2.903-4.944c0.944-1.462,0-2.443-2.106-2.443h-37.04v-37.19h23.58
		c10.735,0,13.154,12.994,15.566,11.075l2.876-2.443c0.481-0.444,0.813-0.951,0.813-1.414v-12.838
		c0.332-2.224-1.613-4.018-4.676-4.018h-69.918c-0.944,0-2.062,0.48-2.716,1.932l-1.291,3.031c-0.812,1.762,0.638,2.261,3.062,2.894
		c6.87,1.131,10.07,3.868,10.07,10.606v82.758c0,11.2,3.55,11.089,15.749,11.089h49.532c4.344,0,7.391-1.476,7.391-4.021v-15.739
		C311.676,860.432,311.354,859.818,310.716,859.656z M378.716,768.543h-52.779c-0.945,0-2.063,0.48-2.729,1.932l-1.266,3.031
		c-0.825,1.762,0.637,2.261,3.05,2.894c6.87,1.131,10.104,3.868,10.104,10.606v83.42c0,4.794,1.609,7.513,4.316,8.469
		c8.52,2.883,18.43,3.852,38.803,3.852c35.297,0,60.78-27.247,60.78-60.611C438.996,789.738,424.392,768.543,378.716,768.543z
		 M378.091,873.121c-12.22,0-20.395-2.901-20.395-15.065v-79.875h18.283c25.176,0,38.809,12.5,38.809,44.26
		C414.788,850.999,403.086,873.121,378.091,873.121z M516.725,766.636c-33.219,0-61.781,23.727-61.781,59.654
		c0,35.286,27.574,56.456,55.989,56.456c37.697,0,60.941-28.871,60.941-60.306C571.875,792.281,548.924,766.636,516.725,766.636z
		 M513.984,872.307c-19.402,0-34.832-16.02-34.832-51.622c0-16.059,7.547-43.635,34.153-43.635c17.654,0,34.35,14.125,34.35,47.478
		C547.655,845.367,538.054,872.307,513.984,872.307z M736.1,873.464c-7.795-1.794-10.217-2.938-10.217-9.802l-5.746-76.656
		c0-6.918,3.371-8.825,8.203-9.956c1.746-0.469,3.334-0.788,3.996-2.569l0.973-3.013c0.822-2.568-0.641-2.925-2.227-2.925h-25.51
		c-2.277,0-4.674,0.836-6.752,5.149l-39.035,77.601l-36.059-76.15c-2.742-5.951-3.838-6.6-9.123-6.6h-25.484
		c-1.477,0-2.289,0.648-2.768,1.286l-1.303,3.237c-0.641,1.414-0.322,2.546,2.914,3.333c2.396,0.486,6,2.518,9.588,6.344
		c1.193,1.263,3.551,3.407,3.271,6.639l-7.195,74.28c0,6.102-4.164,8.645-8.162,9.459c-1.154,0.343-2.41,0.485-3.059,2.274
		l-0.959,2.699c-0.775,2.413,0.773,2.758,2.051,2.758h29.227c1.449,0,2.236-0.521,2.715-1.303l1.266-3.187
		c0.666-1.312,0.369-2.594-1.744-2.899c-7.832-1.794-10.268-2.938-10.268-9.802l7.451-64.324h0.344l35.469,76.338
		c1.295,2.9,2.572,5.177,3.553,5.177h4.627c1.312,0,2.1-1.601,3.072-3.532l37.99-77.982h0.318l5.766,64.324
		c0,6.102-4.203,8.645-8.188,9.459c-1.168,0.343-2.424,0.485-3.047,2.274l-0.986,2.699c-0.811,2.413,0.822,2.758,2.092,2.758h40.707
		c1.463,0,2.238-0.521,2.754-1.303l1.303-3.187C738.547,875.052,738.213,873.77,736.1,873.464z M956.209,768.543H865.77
		c-2.594,0-4.219,0.356-5.596,2.1l-3.553,5.757c-2.102,2.762,0,3.406,2.225,3.406h37.217v83.856c0,6.102-4.168,8.645-8.176,9.459
		c-1.133,0.343-2.42,0.485-3.062,2.274l-0.959,2.699c-0.785,2.413,0.801,2.758,2.104,2.758h40.732c1.426,0,2.26-0.521,2.717-1.303
		l1.277-3.187c0.639-1.312,0.309-2.594-1.734-2.899c-7.867-1.794-10.264-2.938-10.264-9.802v-83.856h30.6
		c2.582,0,4.182-0.339,5.643-2.094l3.508-5.774C960.547,769.191,958.447,768.543,956.209,768.543z M1014.816,776.262
		c1.105-0.307,2.359-0.495,3.035-2.264l0.947-2.73c0.775-2.368-0.799-2.725-2.102-2.725h-40.709c-1.475,0-2.271,0.48-2.791,1.286
		l-1.229,3.237c-0.629,1.264-0.332,2.546,1.748,2.889c7.877,1.757,10.264,2.862,10.264,9.764v77.943
		c0,6.102-4.154,8.645-8.164,9.459c-1.131,0.343-2.422,0.485-3.035,2.274l-0.971,2.699c-0.814,2.413,0.762,2.758,2.053,2.758h40.781
		c1.412,0,2.213-0.521,2.703-1.303l1.291-3.187c0.629-1.312,0.307-2.594-1.781-2.899c-7.844-1.794-10.279-2.938-10.279-9.802
		v-77.943C1006.578,779.618,1010.77,777.05,1014.816,776.262z M1128.551,861.244c-8.812,8.369-20.84,11.062-31.73,11.062
		c-21.85,0-40.611-17.789-40.611-49.866c0-26.14,12.666-45.391,36.898-45.391c25.869,0,31.119,18.92,33.527,17.163l4.363-3.038
		c0.457-0.494,0.922-1.105,0.922-1.744v-10.27c0-1.156,0-2.111-1.291-2.762c-4.953-3.025-18.416-9.764-37.656-9.764
		c-34.646,0-60.996,25.646-60.996,57.104c0,34.947,25.059,59.006,61.609,59.006c14.768,0,27.43-1.894,31.277-4.314
		c1.602-0.962,2.225-2.586,3.211-4.18l4.965-10.77C1134.48,861.093,1130.998,858.981,1128.551,861.244z M865.461,872.969
		c-8.039-2.086-8.986-2.543-12.037-10.4c-10.449-24.733-23.898-57.291-34.977-89.332c-0.465-2.419-1.756-4.669-3.994-4.669h-27.775
		c-1.734,0-3.195,0.18-3.812,1.918l-0.785,2.581c-2.262,3.983,5.273,2.889,8.961,6.4c1.785,1.777,5.766,4.539,2.891,12.203
		l-27.615,70.898c-3.342,7.982-4.51,8.989-11.201,10.577c-2.418,0.624-3.674,1.106-4.178,2.418l-0.775,2.251
		c-1.475,3.638,1.869,3.038,4.953,3.038h24.826c2.287,0,2.777-1.932,3.234-2.758l0.967-1.731c2.059-3.894-10.619-2.238-7.521-10.757
		l7.203-18.308l40.291-0.013l11.973,31.178c0.529,1.42,1.92,2.389,3.471,2.389h22.449c1.816,0,3.121-0.152,3.908-1.601l1.598-3.576
		C867.994,874.444,867.061,873.464,865.461,872.969z M787.182,837.711l16.857-43.498l16.512,43.498H787.182z"/>
	<path fill="#575757" d="M680.264,597.959c-18.314-35.941-16.389-61.455-16.389-61.455c1.117-30.075,12.08-57.69,21.779-86.055
		c2.664-11.904-4.691-21.305-10.156-30.745c-6.652-9.629-8.648-21.481-8.09-33.739c0.18-6.986,3.609-13.481,2.207-20.448
		c-0.834-2.593-3.848-3.643-3.848-3.643c-12.814-4.414-36.178,1.119-62.371,26.209c-35.472,36.087-45.244,86.633-65.726,206.587
		c-4.554,26.609-2.17,28.696,10.857,35.191c37.293,18.238,126.375,10.389,140.527,0c3.219-2.414,4.898-6.951,2.451-11.526
		C690.238,615.804,682.574,601.902,680.264,597.959z M935.93,349.72c-1.336-1.573-10.928-7.877-10.928-7.877
		c-11.486-8.37-24.164-14.498-36.771-20.135c-60.508-24.426-58.932-23.987-62.049-25.564c-3.744-1.819-8.719-5.006-10.928-9.664
		c-3.883-8.16-7.074-16.02-9.98-19.907c-0.73-0.999-3.953-3.415-9.381-7.651c-23.568-19.679-71.998-47.204-71.998-47.204
		c-5.709-3.519-15.371-11.979-20.135-28.188c-3.922-10.193-17.197-12.958-26.508-12.641c-19.678,1.084-36.842-1.194-54.77-5.238
		c-26.473-9.262-59.776-8.735-86.982-1.138c-82.747,23.253-163.007,101.326-209.827,185.752c0,0-108.309,170.519-123.367,189.502
		c-11.557,14.594,1.506,20.482,7.389,23.739c19.714,11.289,48.532,17.607,92.867,17.177c47.133,1.294,55.114-21.871,73.853-64.1
		c5.25-12.01,19.396-46.75,19.396-46.75c8.543-20.502,20.067-47.484,35.402-81.854c31.796-71.522,75.188-111.373,111.847-131.665
		c0,0,49.83-28.452,96.41-12.66c8.82,2.767,13.934-7.176,17.328-11.871c4.242-5.74,11.416-10.645,17.514-11.974
		c11.342-2.524,29.168,6.163,29.168,6.163c28.365,15.617,45.939,25.875,73.115,45.872c0.457,0.349,1.895,1.716,3.287,4.043
		c1.65,2.821,12.156,24.828,12.156,24.828s2.242,4.202,6.195,5.865c3.924,1.682,67.592,28.191,67.592,28.191
		c10.258,4.692,35.469,15.67,48.426,25.528c0.979,0.804,2.557,2.24,1.434,4.972l-4.83,12.817
		c-4.17,10.785-0.703,35.629-12.746,53.928c-1.684,2.591-6.096,5.286-10.438,4.761c-7.559-0.929-17.195-2.45-26.334-2.169
		c-7.107,0.331-15.162,0.734-21.537,7.143c-3.428,3.449-4.793,6.2-2.555,9.382c2.242,2.575,5.15,1.385,5.219,1.369
		c3.711-2.313,9.416-3.918,15.689-3.918c8.367,0.065,19.75,3.394,23.248,9.694c2.594,5.291,3.086,10.05,2.311,16.213
		c-2.553,19.018-14.146,30.012-18.939,33.935c-1.09,0.875-2.527,1.016-4.273,0.418c-6.479-3.168-23.777-10.013-33.902-12.36
		c-1.535-0.278-2.416-0.175-2.869-0.209c-36.939,2.941-73.959,1.506-103.65-18.595c-6.232-4.132-15.617-18.558-21.295-6.444
		c-8.469,24.617-14.209,49.479-10.713,76.791c1.438,10.789,11.734,49.061,37.609,64.279c41.355,21.303,118.5-2.681,115.418-19.963
		c-0.141-0.875-0.559-2.264-2.555-3.381c-1.961-1.17-6.898-3.814-17.016-10.646v0.075c-9.635-6.639-26.648-18.408-32.992-35.128
		c-6.369-17.12,10.504-39.878,55.855-17.82c0,0,7.842,3.781,12.293,7.875c1.014,0.844,2.029,2.032,4.166,1.969
		c2.799-0.075,6.16-1.793,7.178-2.406c14.076-8.169,43.07-37.204,35.645-74.81c15.061-13.132,20.662-27.597,23.854-48.818
		c0.521-3.183,1.049-22.375,9.73-41.933C939.604,361.997,944.264,355.887,935.93,349.72z M740.844,320.448
		c8.367,0,13.547,0.138,18.037,1.156c4.83,1.61,10.639,7.527,15.09,13.271c1.643,2.171,4.52,6.233,8.475,3.922
		c2.033-1.156,4.1-6.375,4.449-10.226c0.453-4.272,2.094-12.396-2.557-16.318c0,0-0.666-0.525-1.09-0.683
		c-1.922-0.682-13.518-5.759-13.518-5.759c-1.963-0.895-3.117-1.298-4.197-1.298c-11.906,0.597-24.412,3.748-30.75,5.394
		c-7.314,1.996-2.797,7.319-2.797,7.319C733.842,319.605,734.051,320.921,740.844,320.448z M587.887,373.481
		c19.152-18.294,48.92-34.931,79.416-31.883c3.506,0.141,7.74-2.136,7.113-7.755c-1.895-12.623-5.359-22.413-11.139-33.322
		c-1.996-3.5-16.561-28.608-18.209-31.551c-0.246-0.47-0.49-0.734-0.596-0.875c-8.996-11.24-37.713-8.314-45.975-7.845
		c-29.384,1.841-101.307,33.269-147.148,136.642c-44.188,99.73-56.833,136.286-56.833,136.286
		c-4.445,10.263-7.316,18.627-24.652,49.129c-9.314,13.276,4.903,20.001,6.688,20.939c15.902,7.95,65.762,18.721,108.1,13.345h0.072
		c9.979-1.312,27.627-9.982,39.744-74.587c0.453-2.382,0.943-4.782,1.331-7.357c6.091-32.843,11.52-58.895,17.96-80.941
		C554.478,417.27,568.731,391.745,587.887,373.481z"/>
</g>
</svg>
