<?xml version="1.0" encoding="utf-8"?>
<!-- Generator: Adobe Illustrator 15.0.0, SVG Export Plug-In . SVG Version: 6.00 Build 0)  -->
<!DOCTYPE svg PUBLIC "-//W3C//DTD SVG 1.1//EN" "http://www.w3.org/Graphics/SVG/1.1/DTD/svg11.dtd">
<svg version="1.1"
	 id="svg3630" sodipodi:docname="financiamiento.svg" inkscape:version="0.91 r13725" xmlns:sodipodi="http://sodipodi.sourceforge.net/DTD/sodipodi-0.dtd" xmlns:inkscape="http://www.inkscape.org/namespaces/inkscape" xmlns:rdf="http://www.w3.org/1999/02/22-rdf-syntax-ns#" xmlns:svg="http://www.w3.org/2000/svg" xmlns:cc="http://creativecommons.org/ns#" xmlns:dc="http://purl.org/dc/elements/1.1/"
	 xmlns="http://www.w3.org/2000/svg" xmlns:xlink="http://www.w3.org/1999/xlink" x="0px" y="0px" width="1142px" height="1142px"
	 viewBox="0 0 1142 1142" enable-background="new 0 0 1142 1142" xml:space="preserve">
<sodipodi:namedview  pagecolor="#ffffff" objecttolerance="10" borderopacity="1" bordercolor="#666666" gridtolerance="10" guidetolerance="10" inkscape:pageopacity="0" inkscape:pageshadow="2" inkscape:window-width="1920" inkscape:window-height="1017" id="namedview3670" showgrid="false" inkscape:cy="583.95966" inkscape:zoom="0.41708155" inkscape:cx="794.6587" inkscape:window-x="1912" inkscape:window-y="-8" inkscape:window-maximized="1" inkscape:current-layer="svg3630">
	</sodipodi:namedview>
<path id="path3638" inkscape:connector-curvature="0" fill="#FFFFFF" d="M518.913-1.776c-6.013,0.446-25.163,2.45-42.31,4.454
	c-171.91,18.928-306.629,92.858-328.676,179.926c-2.449,10.244-3.116,10.688-20.707,19.596
	C66.649,232.484,21.89,275.461,7.418,316.878c-4.899,14.251-5.123,18.26-5.123,71.926c0,53.668,0.224,57.675,5.123,71.702
	c2.893,8.242,9.128,21.157,14.028,28.729c11.135,17.144,38.524,44.312,58.787,58.784c13.362,9.355,63.017,36.297,72.149,39.417
	c2.449,0.666,2.226,3.339-2.006,14.027c-4.899,12.248-5.343,17.367-6.236,64.576c-0.89,59.455,1.117,72.373,15.145,98.426
	l8.685,16.254l-8.685,16.258c-13.137,24.492-15.587,37.854-15.587,89.516c0,50.549,2.45,66.359,13.362,88.179
	c14.694,29.173,36.074,51.663,71.255,75.49c60.791,40.973,146.301,69.032,249.402,81.724c23.826,2.896,48.545,3.785,93.525,3.785
	c44.979,0,69.698-0.89,93.525-3.785c181.706-22.267,311.528-95.307,330.902-186.158c4.229-20.264,4.229-96.199-0.223-116.686
	c-1.781-8.239-7.35-22.936-12.248-32.288l-9.353-17.371l8.908-16.477c4.899-9.129,10.242-20.931,11.801-26.276
	c2.674-8.905,4.01-10.019,23.827-20.486c62.128-32.732,102.431-71.702,116.685-112.899c4.899-14.251,5.12-18.258,5.12-71.926
	c0-53.665-0.221-57.671-5.12-71.702c-7.125-20.706-20.043-39.637-41.42-60.567c-22.047-21.823-43.866-36.741-78.604-54.112
	c-14.474-7.125-26.723-13.138-26.945-13.361c-0.443-0.224,1.336-6.236,4.232-13.361c4.677-11.802,5.119-17.368,6.013-61.236
	c1.113-56.115-1.113-72.371-11.801-95.084c-9.8-20.486-21.824-36.521-39.418-52.33C887.668,55.232,787.465,16.931,666.992,2.457
	c-28.724-3.563-123.807-6.236-148.08-4.231V-1.776z M664.767,38.084c118.688,14.475,218.893,54.78,267.438,107.777
	c16.03,17.369,23.603,30.507,28.057,48.768c17.812,71.257-85.508,148.972-238.715,179.7
	c-50.545,10.022-86.843,13.139-150.306,13.139c-63.464,0-99.762-3.117-150.31-13.139
	C271.737,344.491,168.19,269.004,181.108,199.305c14.027-75.488,139.841-143.628,297.72-160.997
	c47.876-5.344,47.876-5.344,103.547-4.677C612.658,34.077,647.396,35.858,664.767,38.084L664.767,38.084z M143.697,262.323
	c0,32.511,3.787,51.662,13.362,71.036c14.694,29.169,36.074,51.659,71.255,75.489c60.791,40.97,146.301,69.029,249.402,81.72
	c36.521,4.457,138.062,5.123,171.463,1.337c10.466-1.337,19.373-2.003,19.597-1.557c1.781,1.333-56.117,18.704-80.167,24.046
	c-51.882,11.582-92.856,15.591-158.768,15.591c-64.801,0.22-99.986-2.896-151.424-13.141C129,487.005,25.676,411.517,38.59,341.598
	c4.679-25.163,21.157-49.212,49.213-71.925c13.808-11.135,50.548-34.517,54.334-34.517
	C143.027,235.156,143.697,247.404,143.697,262.323L143.697,262.323z M993.219,375.222c64.13,31.175,107.107,74.595,111.563,112.676
	c2.669,23.157-7.796,48.319-30.062,72.592c-80.388,87.736-288.371,133.163-477.649,104.438
	c-32.731-5.123-56.338-10.245-91.296-20.486c-25.609-7.35-26.946-10.242-5.346-10.465c14.921-0.224,69.699-8.463,98.647-14.698
	c99.762-21.601,182.595-63.241,222.68-111.787c13.805-16.924,26.276-39.414,30.285-54.778c2.449-10.465,3.115-10.911,20.707-19.816
	c26.945-13.585,58.787-35.185,77.271-52.775c9.127-8.686,17.59-15.588,18.703-15.588
	C970.059,364.311,980.971,369.21,993.219,375.222L993.219,375.222z M218.296,610.149c11.132,3.339,34.958,9.129,53.441,12.691
	c18.26,3.785,33.402,6.902,33.625,7.126c0,0.224,4.676,6.682,10.465,14.027c41.197,54.558,129.377,99.095,239.826,121.138
	c57.898,11.581,88.403,14.251,155.876,14.251c33.625-0.221,69.699-1.333,80.164-2.446c10.466-1.336,19.15-2.006,19.598-1.783
	c2.893,2.227-58.121,19.817-91.97,26.723c-52.771,10.465-80.831,13.138-145.854,13.138c-65.914,0.224-100.651-2.896-152.534-13.138
	c-91.969-18.483-170.796-55.446-210.657-98.87c-28.726-31.176-36.965-61.237-25.163-90.407
	C190.013,601.018,187.564,601.018,218.296,610.149L218.296,610.149z M237.89,842.847c64.354,39.194,150.977,65.469,250.961,76.157
	c33.848,3.787,130.043,3.787,163.667,0c120.472-12.914,228.25-50.995,284.363-100.207c5.565-5.119,10.688-9.128,11.354-9.128
	c2.23,0,13.362,28.277,14.476,36.74c1.113,11.358-4.007,32.512-11.578,45.873c-29.615,52.775-120.469,101.541-229.581,123.364
	c-50.55,10.021-86.848,13.138-150.311,13.138c-63.464,0-99.762-3.116-150.307-13.138c-91.969-18.48-170.796-55.447-210.657-98.868
	c-15.812-17.146-23.38-30.285-28.056-47.875c-4.233-16.7-3.12-27.836,4.899-45.428l6.013-13.584l14.917,11.802
	C216.066,828.373,229.428,837.728,237.89,842.847L237.89,842.847z"/>
<path id="path3640" inkscape:connector-curvature="0" fill="#FFFFFF" d="M537.839,80.394c0,8.017-0.889,12.692-2.672,13.138
	c-1.56,0.447-14.028,2.005-27.613,3.341c-55.445,5.566-98.201,23.827-110.003,46.763c-15.811,31.175,9.129,57.006,68.363,71.479
	c14.474,3.563,45.873,9.576,69.699,13.361c89.517,13.806,107.554,18.927,110.449,30.507c1.78,7.126-0.67,11.357-10.244,17.815
	c-10.911,7.569-20.487,9.576-51.439,11.131c-54.778,2.674-89.516-7.345-104.437-30.06l-3.339-5.121l-50.772,5.566
	c-28.055,2.896-51.439,5.791-51.882,6.458c-0.67,0.445,3.562,6.013,9.129,12.249c24.496,27.166,60.791,40.97,126.927,47.875
	l26.723,2.67l0.666,16.258l0.67,16.031h33.178h33.401v-16.478v-16.254l18.483-1.56c62.128-4.899,105.994-18.037,128.487-38.301
	c21.376-19.15,20.93-45.427-0.895-61.459c-23.826-17.815-48.988-24.718-145.186-40.75c-65.244-10.912-83.058-15.143-89.74-21.6
	c-9.575-8.686-3.782-19.819,14.251-27.613c11.358-4.899,57.231-6.904,74.598-3.341c16.924,3.562,35.185,12.471,44.76,21.6
	l8.016,7.794l42.087-6.903c54.559-8.907,52.775-8.24,42.31-18.482c-22.27-22.268-63.244-36.743-116.019-41.197l-20.04-1.558
	L605.09,80.84l-0.671-12.693h-33.178h-33.402V80.394L537.839,80.394z"/>
</svg>
