<?xml version="1.0" encoding="utf-8"?>
<!-- Generator: Adobe Illustrator 15.0.0, SVG Export Plug-In . SVG Version: 6.00 Build 0)  -->
<!DOCTYPE svg PUBLIC "-//W3C//DTD SVG 1.1//EN" "http://www.w3.org/Graphics/SVG/1.1/DTD/svg11.dtd">
<svg version="1.1"
	 id="svg3757" xmlns:inkscape="http://www.inkscape.org/namespaces/inkscape" inkscape:version="0.91 r13725" sodipodi:docname="tratamiento.svg" xmlns:cc="http://creativecommons.org/ns#" xmlns:dc="http://purl.org/dc/elements/1.1/" xmlns:rdf="http://www.w3.org/1999/02/22-rdf-syntax-ns#" xmlns:svg="http://www.w3.org/2000/svg" xmlns:sodipodi="http://sodipodi.sourceforge.net/DTD/sodipodi-0.dtd"
	 xmlns="http://www.w3.org/2000/svg" xmlns:xlink="http://www.w3.org/1999/xlink" x="0px" y="0px" width="1142px" height="1142px"
	 viewBox="0 0 1142 1142" enable-background="new 0 0 1142 1142" xml:space="preserve">
<sodipodi:namedview  inkscape:zoom="0.16532399" guidetolerance="10" objecttolerance="10" pagecolor="#ffffff" inkscape:pageopacity="0" inkscape:pageshadow="2" inkscape:window-width="1920" inkscape:window-height="1017" inkscape:window-x="1912" inkscape:window-y="-8" inkscape:window-maximized="1" inkscape:current-layer="svg3757" inkscape:cy="713.75" inkscape:cx="713.75" gridtolerance="10" showgrid="false" borderopacity="1" id="namedview3791" bordercolor="#666666">
	</sodipodi:namedview>
<g>
	<path fill="#777777" d="M338.937,510.258c23.573-15.937,39.07-42.912,39.07-73.507c0-47.041-36.638-85.503-82.93-88.461v-0.205H0
		v332.024h295.076v-0.395c2.709,0.25,5.449,0.395,8.223,0.395c48.967,0,88.664-39.696,88.664-88.663
		C391.963,555.157,370.153,523.98,338.937,510.258z M58.164,407.018h217.051c21.937,0,39.721,17.785,39.721,39.722
		s-17.784,39.722-39.721,39.722H58.164V407.018z M281.754,622.832H58.164V543.39h223.591c21.937,0,39.722,17.783,39.722,39.722
		C321.476,605.049,303.691,622.832,281.754,622.832z"/>
	<polygon fill="#FFFFFF" points="674.836,349.72 593.976,349.72 368.349,681.744 449.21,681.744 483.583,631.163 674.557,631.163 
		674.557,564.488 528.892,564.488 	"/>
	<polygon fill="#777777" points="1127.65,349.72 1075.323,349.72 1046.789,349.72 908.787,494.16 767.956,349.72 741.513,349.72 
		687.095,349.72 674.836,349.72 674.836,681.744 741.513,681.744 741.513,406.189 907.234,578.159 908.378,576.98 908.531,577.138 
		948.782,535.361 948.871,535.272 948.871,535.272 1075.323,404.029 1075.323,681.744 1142,681.744 1142,349.72 	"/>
</g>
</svg>
