<?xml version="1.0" encoding="utf-8"?>
<!-- Generator: Adobe Illustrator 15.0.0, SVG Export Plug-In . SVG Version: 6.00 Build 0)  -->
<!DOCTYPE svg PUBLIC "-//W3C//DTD SVG 1.1//EN" "http://www.w3.org/Graphics/SVG/1.1/DTD/svg11.dtd">
<svg version="1.1"
	 id="svg3708" sodipodi:docname="promociones.svg" inkscape:version="0.91 r13725" xmlns:sodipodi="http://sodipodi.sourceforge.net/DTD/sodipodi-0.dtd" xmlns:inkscape="http://www.inkscape.org/namespaces/inkscape" xmlns:rdf="http://www.w3.org/1999/02/22-rdf-syntax-ns#" xmlns:svg="http://www.w3.org/2000/svg" xmlns:cc="http://creativecommons.org/ns#" xmlns:dc="http://purl.org/dc/elements/1.1/"
	 xmlns="http://www.w3.org/2000/svg" xmlns:xlink="http://www.w3.org/1999/xlink" x="0px" y="0px" width="1142px" height="1142px"
	 viewBox="0 0 1142 1142" enable-background="new 0 0 1142 1142" xml:space="preserve">
<sodipodi:namedview  pagecolor="#ffffff" objecttolerance="10" borderopacity="1" bordercolor="#666666" gridtolerance="10" guidetolerance="10" inkscape:pageopacity="0" inkscape:pageshadow="2" inkscape:window-width="1920" inkscape:window-height="1017" id="namedview3740" showgrid="false" inkscape:cy="713.75" inkscape:zoom="0.16532399" inkscape:cx="713.75" inkscape:window-x="1912" inkscape:window-y="-8" inkscape:window-maximized="1" inkscape:current-layer="svg3708">
	</sodipodi:namedview>
<path id="path3716" inkscape:connector-curvature="0" fill="#FFFFFF" d="M435.524,35.741c-13.639,19.338-30.332,42.75-37.047,52.113
	l-12.012,16.897l-17.507-1.426c-70.23-4.884-105.243-6.107-107.281-3.664c-1.219,1.22-6.512,29.314-12.009,62.291l-9.771,60.053
	l-23.819,9.772c-13.028,5.496-36.029,15.064-51.094,21.374c-15.065,6.514-30.942,12.825-35.217,14.454
	c-5.294,1.832-7.328,3.664-6.516,5.903c8.145,27.074,33.59,116.44,33.59,118.273c0,1.833-53.743,63.31-76.746,87.533l-6.92,7.331
	l41.933,47.226c33.794,37.662,41.937,48.042,41.122,51.706c-0.407,2.444-7.938,28.704-16.692,58.424
	c-8.753,29.724-15.88,55.169-16.083,56.594c-0.204,2.646,15.473,9.77,77.561,35.218c22.189,8.957,37.658,16.284,38.27,18.318
	c0.611,1.833,2.444,10.79,4.071,19.747l2.852,16.488l-8.753,18.933c-19.951,42.951-77.968,167.535-89.978,192.983l-12.824,27.482
	l15.673,0.607c8.549,0.204,40.51-0.203,70.638-1.219c30.334-1.019,55.982-1.426,57.001-1.019c1.219,0.407,5.697,5.498,10.176,11.399
	c4.478,5.903,24.226,30.945,43.97,55.778l36.032,45.192l18.322-39.084c9.975-21.578,28.5-61.277,41.121-88.555
	c12.621-27.072,23.818-49.261,24.633-49.261c1.016,0,2.645,1.83,3.868,4.071c1.219,2.237,3.052,4.071,4.071,4.071
	c1.018,0,25.852-13.232,55.165-29.521c29.315-16.284,54.354-29.516,55.575-29.516c1.426,0,24.835,12.417,52.112,27.686
	c63.515,35.421,58.018,32.977,62.903,27.075c2.24-2.648,4.275-4.479,4.887-3.867c0.406,0.607,6.715,13.84,14.046,29.517
	c7.328,15.673,25.445,54.761,40.511,86.921c14.857,32.369,27.686,58.628,28.294,58.628c0.815,0,21.374-25.241,45.804-56.183
	l44.581-55.983l9.364,1.019c5.09,0.611,37.455,1.63,71.859,2.445c60.867,1.219,62.903,1.219,60.867-2.445
	c-2.239-4.274-36.439-77.557-67.586-144.328c-11.398-24.633-25.853-55.371-31.96-68.603l-11.195-23.615l3.256-18.93
	c1.63-10.384,3.868-19.544,4.683-20.358c0.815-0.815,19.951-8.957,42.343-18.118c22.394-9.16,48.042-19.744,57-23.611
	c9.363-3.87,16.08-7.941,16.08-9.365c-0.204-1.425-7.938-28.5-17.099-60.257c-9.162-31.758-16.285-58.425-15.878-59.236
	c0.405-1.019,19.134-22.597,41.933-48.248l41.122-46.208l-4.682-5.294c-23.411-25.037-78.78-88.348-78.78-89.773
	c0-1.426,29.312-104.633,33.384-117.458c1.019-3.462-1.426-5.09-19.544-12.419c-11.602-4.478-36.436-14.859-55.572-22.798
	c-18.933-8.144-36.031-15.063-37.861-15.674c-2.649-0.815-5.294-13.843-13.439-62.903c-5.697-34.2-10.583-62.292-10.991-62.699
	c-0.611-0.611-47.431,1.832-109.111,5.701l-16.693,1.017l-37.048-51.909C698.33,23.934,681.027,0.932,680.416,1.339
	c-0.815,0.406-9.568,5.496-19.744,10.993c-45.601,25.649-88.759,49.466-89.57,49.466c-1.019,0-39.087-20.967-89.57-49.466
	c-9.976-5.497-18.933-10.586-19.748-10.993C460.969,0.932,449.163,16.403,435.524,35.741L435.524,35.741z M520.819,76.456
	c26.464,14.656,49.06,26.667,50.282,26.667c1.22,0,24.02-12.011,50.278-26.667c26.468-14.861,48.453-26.871,49.061-26.871
	c0.407,0,15.473,20.559,33.184,45.802l32.164,45.803l12.417-0.204c6.717,0,32.368-1.221,56.998-2.645
	c24.633-1.426,44.989-2.647,44.989-2.443c0.203,0,4.682,25.445,9.771,56.185c5.294,30.738,9.771,56.184,9.976,56.184
	c0.608,0.611,92.827,38.677,99.747,41.325c4.682,1.831,5.496,3.053,4.274,6.92c-0.815,2.444-8.142,27.075-16.081,54.761
	l-14.657,50.282l37.661,41.933c20.56,23.003,37.047,42.955,36.437,44.377c-0.608,1.426-17.304,20.766-37.455,43.159l-36.438,40.711
	l15.676,54.964c8.549,30.331,15.47,55.169,15.266,55.169c0,0.202-23.003,9.771-51.094,21.17
	c-27.89,11.398-51.504,21.374-52.319,22.188c-1.016,1.019-8.753,43.155-18.115,98.73l-2.239,13.843l-21.783-1.222
	c-58.016-3.663-90.588-5.09-92.011-4.071c-0.815,0.408-12.42,16.284-25.448,35.014c-13.232,18.729-27.887,39.084-32.369,45.396
	l-8.549,11.602l-48.652-27.278c-26.667-14.858-49.467-27.075-50.687-27.075c-1.019-0.203-24.022,12.217-50.689,27.075
	c-48.652,27.278-48.856,27.278-52.113,23.003c-1.833-2.441-12.417-17.303-23.411-32.978c-10.992-15.674-24.63-34.811-30.128-42.342
	l-10.179-14.047l-13.436,1.223c-22.393,2.034-98.12,5.7-98.934,4.887c-0.408-0.408-5.087-25.449-10.177-55.576
	c-5.293-30.331-9.976-55.572-10.791-56.388c-0.814-0.61-19.339-8.549-41.121-17.507c-50.483-20.763-62.088-25.445-62.496-25.853
	c-0.204,0,6.312-24.021,14.658-52.927c8.346-29.112,15.269-54.354,15.065-55.983c0-1.626-16.898-21.781-37.457-44.581
	l-37.254-41.529l37.865-42.544c20.967-23.412,37.659-43.767,37.458-44.989c-0.408-1.426-7.126-24.631-14.861-51.909
	c-7.938-27.279-14.658-50.689-15.269-52.316c-0.812-1.833,0.611-3.667,3.667-5.089c5.29-2.241,87.329-36.032,95.472-39.29
	c5.089-2.035,5.497-3.663,14.861-58.22c5.293-30.738,9.772-56.186,9.975-56.591c0.405-0.204,22.39,1.017,49.261,2.443
	c26.872,1.628,52.523,2.849,57.002,2.849h8.142l32.165-45.599c17.914-25.243,32.772-45.804,33.384-45.804
	c0.407,0,22.596,12.012,49.06,26.871V76.456z M258.624,865.485c0,11.807-2.037,11.603,64.937,7.735
	c33.794-1.834,62.292-2.853,63.107-2.241c1.018,0.611,10.586,13.231,21.374,28.298l19.543,27.277l-10.991,23.208
	c-6.108,12.62-20.766,43.971-32.776,69.822c-11.806,25.649-22.392,47.634-23.411,48.449c-0.815,1.019-15.673-16.284-32.775-38.065
	l-31.35-39.899l-51.501,1.423l-51.297,1.223l4.882-11.195c4.479-10.179,17.914-39.088,47.637-102.599
	C255.571,858.359,258.624,855.103,258.624,865.485z M898.233,882.584c35.217,75.728,44.989,96.897,47.637,103.21l2.849,6.921
	l-51.3-1.427l-51.501-1.423l-31.351,39.899c-17.303,21.78-32.164,39.084-32.976,38.27c-0.814-0.815-10.79-21.781-22.192-46.414
	c-11.602-24.632-26.26-56.185-32.771-70.027l-11.81-25.445l10.179-14.25c5.702-7.938,14.658-20.56,19.748-28.093
	c11.397-16.285,2.849-15.062,80.613-10.788c30.127,1.833,55.165,2.849,55.572,2.237c0.611-0.404,1.426-4.682,2.037-9.161
	c0.611-4.681,1.627-8.345,2.441-8.345C886.021,857.748,891.925,868.945,898.233,882.584z"/>
</svg>
