<?xml version="1.0" encoding="utf-8"?>
<!-- Generator: Adobe Illustrator 16.0.3, SVG Export Plug-In . SVG Version: 6.00 Build 0)  -->
<!DOCTYPE svg PUBLIC "-//W3C//DTD SVG 1.1//EN" "http://www.w3.org/Graphics/SVG/1.1/DTD/svg11.dtd">
<svg version="1.1"
	 id="svg3757" xmlns:sodipodi="http://sodipodi.sourceforge.net/DTD/sodipodi-0.dtd" xmlns:cc="http://creativecommons.org/ns#" xmlns:svg="http://www.w3.org/2000/svg" xmlns:dc="http://purl.org/dc/elements/1.1/" xmlns:inkscape="http://www.inkscape.org/namespaces/inkscape" xmlns:rdf="http://www.w3.org/1999/02/22-rdf-syntax-ns#" inkscape:version="0.91 r13725" sodipodi:docname="tratamiento.svg"
	 xmlns="http://www.w3.org/2000/svg" xmlns:xlink="http://www.w3.org/1999/xlink" x="0px" y="0px" width="1142px" height="1142px"
	 viewBox="0 0 1142 1142" enable-background="new 0 0 1142 1142" xml:space="preserve">
<sodipodi:namedview  inkscape:window-maximized="1" id="namedview3791" pagecolor="#ffffff" bordercolor="#666666" inkscape:cy="713.75" guidetolerance="10" showgrid="false" inkscape:cx="713.75" gridtolerance="10" borderopacity="1" objecttolerance="10" inkscape:zoom="0.16532399" inkscape:pageshadow="2" inkscape:pageopacity="0" inkscape:window-width="1920" inkscape:window-y="-8" inkscape:window-x="1912" inkscape:current-layer="svg3757" inkscape:window-height="1017">
	</sodipodi:namedview>
<path id="path3765" inkscape:connector-curvature="0" fill="#FFFFFF" d="M670.703,16.882c-4.741,32.967-13.396,51.305-26.17,54.395
	c-2.886,0.825-5.152,2.268-5.152,3.504c0,1.235-0.823,1.648-1.854,1.03c-1.03-0.619-4.327,0.205-7.418,1.648
	c-3.299,1.647-14.01,4.121-24.106,5.563c-10.302,1.442-17.307,3.09-15.659,3.915c1.442,0.824,10.099,2.677,18.956,3.915
	c9.064,1.236,17.31,3.09,18.543,4.12c1.236,1.03,5.979,2.886,10.508,4.328c12.775,4.121,17.104,7.83,22.255,19.161
	c5.771,12.571,8.861,24.314,10.923,42.24c2.267,21.429,4.53,19.162,8.856-9.684c2.474-15.041,7.624-32.142,12.158-38.941
	c1.648-2.474,8.241-7.006,14.629-9.89c6.389-2.885,13.188-5.975,15.039-7.213c2.062-1.03,10.923-2.884,19.576-4.12
	c8.859-1.442,17.307-3.091,18.751-3.709c1.442-0.824-5.564-2.679-15.454-4.121c-9.89-1.237-22.873-4.739-28.846-7.624
	c-6.184-2.679-11.746-4.946-12.57-4.946c-3.296,0-12.362-11.332-15.865-19.574c-2.06-4.533-5.15-17.513-7.005-28.64
	c-2.061-11.332-4.535-20.811-5.771-21.222C673.998,0.604,671.938,7.404,670.703,16.882L670.703,16.882z"/>
<path id="path3767" inkscape:connector-curvature="0" fill="#FFFFFF" d="M907.736,78.961c-5.89,41.992-11.233,71.459-13.812,75.143
	c-0.551,0.92-2.211,5.524-3.498,10.129c-7.736,26.89-25.601,44.384-52.673,51.567c-4.975,1.289-9.945,2.947-11.052,3.684
	c-3.131,2.394-19.339,5.525-49.54,9.761c-19.157,2.764-29.653,5.157-30.205,6.63c-0.552,1.473,0.736,2.211,3.498,1.842
	c2.396-0.185,5.71,0.185,7.185,0.737c1.473,0.553,14.732,2.762,29.465,4.788c36.836,5.526,53.227,9.945,67.962,18.417
	c18.602,10.867,26.704,20.996,36.097,45.306c0.919,2.026,1.289,4.421,1.104,5.342c-0.186,0.921,0.369,2.209,1.29,2.763
	c2.208,1.473,6.997,25.23,11.415,57.093c3.684,25.602,4.424,29.467,6.447,27.625c0.369-0.551,2.946-15.471,5.527-32.965
	c6.075-40.886,10.129-57.462,18.603-74.404c7.917-16.392,14.18-22.469,31.124-31.493c15.838-8.29,30.387-12.157,66.302-17.497
	c15.286-2.21,28.914-4.605,30.386-5.156c1.474-0.369,4.237-0.921,5.895-1.104c1.842-0.185,3.497-0.922,3.683-1.843
	c0.369-1.104-12.707-3.683-28.915-6.077c-32.231-4.604-46.778-7.549-50.096-10.13c-1.103-0.92-3.129-1.474-4.604-1.288
	c-6.26,1.104-28.177-10.314-38.122-19.523c-19.892-18.601-25.968-37.019-37.018-112.896c-1.288-8.288-2.946-15.102-3.867-15.102
	C909.579,70.307,908.291,74.172,907.736,78.961L907.736,78.961z"/>
<path id="path3769" inkscape:connector-curvature="0" fill="#FFFFFF" d="M276.03,275.84c-11.05,1.658-31.308,6.446-34.991,8.104
	c-2.026,0.921-11.971,5.341-22.102,9.761c-46.779,20.627-86.928,61.881-104.792,107.556c-3.684,9.392-6.631,18.049-6.631,19.338
	c0,1.289-1.287,4.789-2.762,7.552c-3.5,6.63-8.103,28.915-9.578,46.41c-0.551,7.551-1.842,13.815-2.577,13.815
	c-0.922,0-1.657,11.234-1.657,24.859c0,13.632,0.735,24.866,1.657,24.866c0.735,0,2.025,6.998,2.577,15.47
	c1.29,14.918,5.895,41.439,8.29,47.148c0.551,1.472,1.288,3.498,1.288,4.604c0.185,0.922,0.92,3.132,1.475,4.603
	c0.735,1.472,2.393,7.737,4.049,13.813c4.052,16.024,11.053,34.073,21.367,55.807c4.97,10.314,9.023,19.337,9.023,20.073
	c0,1.289,23.574,39.046,27.073,43.097c2.578,3.13,4.238,6.999,16.208,38.49c3.499,9.578,7.736,19.522,9.023,22.103
	c1.29,2.578,5.895,15.102,10.129,27.992c4.421,12.894,8.657,23.942,9.577,24.677c0.921,0.556,1.106,1.846,0.555,2.947
	c-0.74,1.106-0.555,2.399,0.367,3.134c0.92,0.553,4.789,10.683,8.842,22.284c3.868,11.603,8.288,24.129,9.944,27.626
	c1.475,3.498,2.947,6.813,3.132,7.367c0.184,0.552,1.656,4.054,3.313,8.101c1.659,3.868,3.132,7.737,3.132,8.472
	c0,4.607,30.94,70.355,33.703,71.462c0.735,0.368,1.291,1.842,1.291,3.131c0,1.473,1.103,3.314,2.392,4.05
	c1.106,0.738,3.5,3.868,4.975,7.001c1.471,2.946,8.102,11.048,14.732,17.679c14.182,14.551,21.549,17.313,41.621,15.838
	c13.446-0.92,30.021-6.815,36.469-12.705c2.024-1.843,4.418-3.317,5.524-3.317c2.579,0,17.68-15.103,17.68-17.68
	c0-1.105,1.843-4.054,4.236-6.445c5.71-6.445,15.286-27.811,18.971-43.099c1.657-7.18,3.683-13.811,4.604-14.73
	c2.946-4.054,7.552-36.466,12.708-90.245c4.05-42.177,6.627-61.331,9.208-64.459c0.737-1.107,2.764-6.261,4.421-11.42
	c4.419-13.261,10.313-17.678,22.098-16.574c10.869,0.92,16.024,6.261,19.708,19.522c1.289,4.603,2.947,9.393,3.685,10.313
	c2.209,3.133,4.972,22.284,8.84,64.459c3.684,39.229,8.656,76.984,10.684,81.958c0.55,1.47,1.286,3.497,1.471,4.603
	c0,0.92,0.738,3.131,1.476,4.604c0.736,1.473,2.392,7.551,4.048,13.628c3.134,12.709,13.262,35.544,17.864,40.52
	c1.845,2.025,3.318,4.603,3.318,5.709c0,2.576,16.944,19.336,19.521,19.336c1.105,0,3.5,1.476,5.525,3.318
	c6.446,5.89,23.021,11.785,36.467,12.705c19.891,1.475,26.888-1.104,41.254-15.653c6.815-6.815,13.627-14.733,15.103-17.863
	c1.472-2.947,4.235-6.816,6.076-8.658c1.66-1.842,3.132-4.05,3.132-4.971c0-1.106,4.052-9.396,9.208-18.787
	c4.973-9.211,12.893-26.522,17.681-38.309c4.604-11.787,9.211-23.392,10.498-25.97c1.105-2.576,2.026-4.971,2.211-5.523
	c0.185-0.552,1.286-3.499,2.578-6.445c1.289-3.134,5.711-15.102,9.762-26.707c4.051-11.603,8.286-22.283,9.209-23.571
	c1.105-1.288,1.472-2.763,0.919-3.501c-0.735-0.553-0.552-2.024,0.368-3.13c0.919-1.106,4.603-10.685,8.105-21.366
	c3.498-10.681,7.551-21.915,8.839-24.861c1.289-3.13,2.396-5.894,2.58-6.445c0.182-0.554,1.657-4.052,3.313-7.735
	c1.842-3.869,3.133-7.551,3.133-8.473c0-5.341,16.389-39.78,26.518-55.803c13.998-22.102,34.993-63.356,41.072-80.851
	c2.393-6.631,6.446-19.521,9.023-28.548c2.395-9.209,5.342-18.232,6.077-20.258c3.317-7.184,7.736-35.362,9.763-62.068
	c1.658-20.442,1.658-32.964,0-52.488c-2.212-24.861-6.63-51.198-9.394-54.882c-0.919-1.104-2.393-5.894-3.683-10.681
	c-3.314-13.445-16.76-43.097-25.968-56.542c-19.156-28.547-53.229-57.093-83.799-70.353c-9.023-4.053-19.153-8.473-22.1-9.763
	c-14.551-6.445-32.968-9.208-62.619-9.023c-27.44,0-60.04,3.867-66.117,7.55c-1.106,0.737-2.764,1.473-3.869,1.473
	c-0.921,0.185-3.132,0.737-4.603,1.29c-1.473,0.737-13.261,3.867-26.337,6.999c-62.067,15.101-84.536,14.917-147.705-1.106
	c-14.181-3.5-26.521-6.629-27.627-6.814c-0.92-0.369-2.762-1.105-3.865-1.657c-7.735-4.973-74.039-10.314-91.9-7.735L276.03,275.84z
	 M338.096,336.434c12.525,2.394,35.915,7.919,52.123,12.155c49.908,12.891,52.855,13.259,84.717,13.444
	c27.257,0,38.49-1.473,59.855-7.183c52.673-14.365,95.402-23.02,114.371-23.02c16.207,0,41.992,5.893,59.304,13.626
	c15.103,6.631,36.65,22.101,47.514,33.889c38.127,41.622,52.674,116.582,37.57,191.906c-6.445,31.676-11.049,47.518-20.441,69.432
	c-10.128,23.945-15.653,34.626-25.415,49.912c-23.391,37.018-35.913,66.303-72.381,170.729c-5.524,16.202-10.865,30.2-11.601,31.305
	c-0.736,0.92-4.422,10.131-8.105,20.262c-6.262,16.573-9.759,24.677-25.783,58.013c-6.261,13.261-16.943,27.624-20.441,27.624
	c-4.238,0-17.314-12.705-21.364-20.44c-4.054-8.104-9.762-28.179-13.814-48.806c-3.498-17.868-3.13-15.656-7.918-61.515
	c-7.184-69.434-9.761-81.957-21.733-105.347c-16.208-31.861-43.465-47.883-75.877-45.121c-42.546,3.684-70.354,37.204-79.196,96.139
	c-1.102,6.997-3.683,29.836-5.891,50.649c-2.027,20.807-4.053,39.777-4.422,42.355c-1.473,13.262-8.839,47.518-12.707,58.751
	c-5.895,17.498-18.97,33.521-27.257,33.337c-6.077-0.186-28.914-42.729-43.832-82.327c-3.869-10.312-8.473-21.545-9.946-24.858
	c-1.473-3.318-6.998-18.05-12.338-32.785c-25.232-71.458-29.838-83.612-39.047-106.266c-10.498-25.418-15.285-34.439-33.149-63.173
	c-25.049-40.148-42.914-92.823-49.542-145.493c-2.026-17.313-0.924-65.934,1.842-74.59c1.103-3.129,3.314-11.786,4.971-19.337
	c13.076-58.199,51.201-97.427,109.581-113.266C289.291,330.727,309.367,330.542,338.096,336.434L338.096,336.434L338.096,336.434z"
	/>
</svg>
