<?xml version="1.0" encoding="utf-8"?>
<!-- Generator: Adobe Illustrator 15.0.0, SVG Export Plug-In . SVG Version: 6.00 Build 0)  -->
<!DOCTYPE svg PUBLIC "-//W3C//DTD SVG 1.1//EN" "http://www.w3.org/Graphics/SVG/1.1/DTD/svg11.dtd">
<svg version="1.1"
	 id="svg3757" sodipodi:docname="tratamiento.svg" inkscape:version="0.91 r13725" xmlns:sodipodi="http://sodipodi.sourceforge.net/DTD/sodipodi-0.dtd" xmlns:inkscape="http://www.inkscape.org/namespaces/inkscape" xmlns:rdf="http://www.w3.org/1999/02/22-rdf-syntax-ns#" xmlns:svg="http://www.w3.org/2000/svg" xmlns:cc="http://creativecommons.org/ns#" xmlns:dc="http://purl.org/dc/elements/1.1/"
	 xmlns="http://www.w3.org/2000/svg" xmlns:xlink="http://www.w3.org/1999/xlink" x="0px" y="0px" width="1142px" height="1142px"
	 viewBox="0 0 1142 1142" enable-background="new 0 0 1142 1142" xml:space="preserve">
<sodipodi:namedview  pagecolor="#ffffff" objecttolerance="10" borderopacity="1" bordercolor="#666666" gridtolerance="10" guidetolerance="10" inkscape:pageopacity="0" inkscape:pageshadow="2" inkscape:window-width="1920" inkscape:window-height="1017" id="namedview3791" showgrid="false" inkscape:cy="713.75" inkscape:zoom="0.16532399" inkscape:cx="713.75" inkscape:window-x="1912" inkscape:window-y="-8" inkscape:window-maximized="1" inkscape:current-layer="svg3757">
	</sodipodi:namedview>
<path id="path3765" inkscape:connector-curvature="0" fill="#FFFFFF" d="M670.703,16.882c-4.741,32.967-13.396,51.305-26.17,54.395
	c-2.886,0.825-5.152,2.268-5.152,3.504c0,1.235-0.823,1.648-1.854,1.03c-1.03-0.619-4.327,0.205-7.418,1.648
	c-3.298,1.647-14.009,4.121-24.106,5.563c-10.302,1.442-17.307,3.09-15.659,3.915c1.442,0.824,10.098,2.677,18.956,3.915
	c9.064,1.236,17.309,3.09,18.543,4.12c1.236,1.03,5.978,2.886,10.508,4.328c12.775,4.121,17.103,7.83,22.254,19.161
	c5.771,12.571,8.862,24.314,10.923,42.24c2.267,21.429,4.531,19.162,8.857-9.684c2.473-15.041,7.624-32.142,12.158-38.941
	c1.648-2.474,8.241-7.006,14.629-9.89c6.389-2.885,13.187-5.975,15.039-7.213c2.061-1.03,10.923-2.884,19.576-4.12
	c8.859-1.442,17.307-3.091,18.751-3.709c1.442-0.824-5.564-2.679-15.454-4.121c-9.89-1.237-22.873-4.739-28.846-7.624
	c-6.183-2.679-11.746-4.946-12.57-4.946c-3.296,0-12.362-11.332-15.865-19.574c-2.06-4.533-5.151-17.513-7.005-28.64
	c-2.061-11.332-4.535-20.811-5.771-21.222C673.998,0.604,671.938,7.404,670.703,16.882L670.703,16.882z"/>
<path id="path3767" inkscape:connector-curvature="0" fill="#FFFFFF" d="M937.115,40.989c-6.59,46.979-12.568,79.946-15.452,84.067
	c-0.616,1.03-2.474,6.181-3.914,11.332c-8.654,30.083-28.641,49.656-58.928,57.692c-5.565,1.442-11.127,3.297-12.364,4.121
	c-3.503,2.678-21.636,6.181-55.425,10.92c-21.431,3.092-33.175,5.769-33.792,7.418c-0.617,1.648,0.824,2.473,3.914,2.06
	c2.681-0.206,6.388,0.207,8.037,0.825c1.648,0.618,16.483,3.09,32.965,5.356c41.211,6.182,59.548,11.126,76.033,20.604
	c20.811,12.157,29.876,23.489,40.384,50.687c1.029,2.267,1.443,4.946,1.236,5.976s0.413,2.472,1.443,3.091
	c2.471,1.648,7.828,28.227,12.771,63.874c4.121,28.642,4.949,32.967,7.213,30.906c0.412-0.617,3.296-17.308,6.184-36.881
	c6.797-45.742,11.332-64.286,20.811-83.241c8.858-18.338,15.865-25.138,34.821-35.233c17.72-9.274,33.996-13.6,74.176-19.575
	c17.102-2.473,32.348-5.152,33.995-5.769c1.649-0.412,4.741-1.03,6.594-1.235c2.061-0.207,3.914-1.032,4.121-2.062
	c0.413-1.235-14.216-4.12-32.349-6.799c-36.06-5.151-52.335-8.446-56.046-11.333c-1.233-1.03-3.5-1.649-5.15-1.441
	c-7.003,1.235-31.524-11.539-42.65-21.842c-22.254-20.81-29.051-41.415-41.414-126.304c-1.441-9.272-3.296-16.895-4.326-16.895
	C939.177,31.307,937.735,35.631,937.115,40.989L937.115,40.989z"/>
<path id="path3769" inkscape:connector-curvature="0" fill="#FFFFFF" d="M230.383,261.251c-12.362,1.855-35.026,7.211-39.146,9.066
	c-2.267,1.03-13.393,5.975-24.727,10.92c-52.335,23.077-97.252,69.231-117.239,120.329c-4.121,10.508-7.418,20.193-7.418,21.635
	c0,1.442-1.44,5.358-3.09,8.448c-3.915,7.418-9.065,32.349-10.715,51.922c-0.617,8.448-2.061,15.456-2.883,15.456
	c-1.031,0-1.854,12.569-1.854,27.813c0,15.25,0.823,27.819,1.854,27.819c0.823,0,2.266,7.829,2.883,17.307
	c1.443,16.689,6.595,46.361,9.274,52.748c0.617,1.646,1.441,3.914,1.441,5.15c0.207,1.031,1.03,3.504,1.65,5.15
	c0.823,1.646,2.677,8.656,4.531,15.453c4.533,17.926,12.365,38.119,23.904,62.434c5.56,11.539,10.095,21.633,10.095,22.457
	c0,1.443,26.374,43.684,30.288,48.215c2.884,3.502,4.741,7.83,18.133,43.062c3.914,10.715,8.654,21.84,10.095,24.727
	c1.443,2.885,6.594,16.896,11.332,31.318c4.947,14.424,9.685,26.785,10.715,27.607c1.03,0.621,1.237,2.064,0.621,3.297
	c-0.828,1.238-0.621,2.684,0.41,3.506c1.03,0.619,5.358,11.951,9.892,24.93c4.327,12.982,9.272,26.996,11.125,30.908
	c1.65,3.914,3.297,7.623,3.504,8.242c0.206,0.617,1.853,4.535,3.707,9.062c1.856,4.328,3.504,8.656,3.504,9.479
	c0,5.154,34.615,78.711,37.706,79.949c0.823,0.412,1.444,2.061,1.444,3.502c0,1.648,1.234,3.709,2.676,4.531
	c1.238,0.826,3.916,4.328,5.565,7.832c1.646,3.297,9.064,12.361,16.482,19.779c15.866,16.279,24.108,19.369,46.564,17.719
	c15.043-1.029,33.586-7.625,40.801-14.215c2.264-2.061,4.943-3.711,6.181-3.711c2.884,0,19.779-16.896,19.779-19.779
	c0-1.236,2.061-4.535,4.739-7.211c6.388-7.211,17.102-31.113,21.224-48.217c1.853-8.033,4.12-15.451,5.15-16.48
	c3.296-4.535,8.448-40.797,14.218-100.963c4.531-47.186,7.414-68.615,10.301-72.115c0.825-1.238,3.091-7.004,4.946-12.775
	c4.943-14.836,11.538-19.779,24.723-18.543c12.159,1.029,17.926,7.004,22.047,21.84c1.443,5.15,3.297,10.508,4.123,11.539
	c2.471,3.504,5.562,24.93,9.889,72.115c4.121,43.887,9.685,86.127,11.953,91.691c0.616,1.645,1.439,3.912,1.646,5.15
	c0,1.029,0.825,3.502,1.651,5.15c0.823,1.648,2.676,8.447,4.529,15.246c3.505,14.219,14.836,39.766,19.986,45.332
	c2.063,2.266,3.712,5.15,3.712,6.387c0,2.883,18.957,21.633,21.84,21.633c1.236,0,3.915,1.65,6.18,3.711
	c7.212,6.59,25.756,13.186,40.798,14.215c22.254,1.65,30.081-1.236,46.154-17.512c7.625-7.625,15.246-16.484,16.896-19.986
	c1.646-3.297,4.738-7.625,6.798-9.686c1.857-2.061,3.504-4.531,3.504-5.561c0-1.238,4.533-10.512,10.301-21.018
	c5.564-10.305,14.424-29.672,19.781-42.859c5.15-13.186,10.305-26.17,11.745-29.053c1.237-2.883,2.266-5.562,2.473-6.18
	c0.206-0.617,1.44-3.914,2.885-7.211c1.442-3.506,6.389-16.896,10.921-29.879c4.531-12.98,9.271-24.93,10.303-26.371
	c1.236-1.441,1.646-3.09,1.028-3.916c-0.823-0.619-0.618-2.266,0.411-3.502c1.029-1.238,5.15-11.953,9.069-23.904
	c3.913-11.949,8.447-24.518,9.888-27.814c1.443-3.502,2.681-6.594,2.887-7.211c0.203-0.619,1.854-4.533,3.707-8.654
	c2.061-4.328,3.505-8.447,3.505-9.479c0-5.975,18.335-44.504,29.667-62.43c15.66-24.727,39.148-70.881,45.95-90.453
	c2.677-7.418,7.212-21.84,10.095-31.938c2.679-10.303,5.976-20.398,6.799-22.664c3.712-8.037,8.655-39.562,10.923-69.44
	c1.854-22.87,1.854-36.879,0-58.722c-2.475-27.814-7.418-57.279-10.51-61.4c-1.029-1.236-2.677-6.594-4.12-11.95
	c-3.708-15.042-18.75-48.215-29.052-63.257c-21.431-31.937-59.55-63.874-93.751-78.708c-10.096-4.534-21.428-9.479-24.725-10.922
	c-16.278-7.211-36.883-10.302-70.056-10.095c-30.7,0-67.17,4.326-73.97,8.446c-1.237,0.825-3.092,1.648-4.328,1.648
	c-1.03,0.207-3.504,0.825-5.15,1.443c-1.647,0.824-14.835,4.326-29.464,7.83c-69.439,16.894-94.576,16.689-165.248-1.237
	c-15.865-3.916-29.671-7.417-30.909-7.624c-1.029-0.413-3.09-1.237-4.324-1.854c-8.653-5.563-82.832-11.539-102.815-8.653
	L230.383,261.251z M299.82,329.041c14.012,2.678,40.18,8.86,58.313,13.599c55.835,14.422,59.133,14.834,94.778,15.041
	c30.494,0,43.062-1.648,66.964-8.036c58.929-16.071,106.732-25.754,127.954-25.754c18.132,0,46.98,6.593,66.348,15.245
	c16.895,7.418,41.003,24.726,53.156,37.914c42.655,46.565,58.93,130.428,42.033,214.698c-7.211,35.438-12.361,53.16-22.869,77.678
	c-11.331,26.789-17.513,38.738-28.434,55.84c-26.168,41.414-40.178,74.176-80.977,191.006
	c-6.181,18.127-12.156,33.787-12.979,35.023c-0.824,1.029-4.947,11.334-9.068,22.668c-7.005,18.541-10.918,27.607-28.846,64.902
	c-7.004,14.836-18.955,30.906-22.869,30.906c-4.741,0-19.37-14.215-23.901-22.869c-4.535-9.066-10.921-31.525-15.455-54.602
	c-3.913-19.99-3.502-17.516-8.859-68.82c-8.037-77.68-10.92-91.691-24.314-117.859c-18.133-35.645-48.627-53.57-84.889-50.48
	c-47.598,4.121-78.71,41.623-88.601,107.557c-1.233,7.828-4.12,33.379-6.591,56.664c-2.268,23.279-4.534,44.502-4.947,47.387
	c-1.648,14.836-9.889,53.16-14.216,65.729c-6.595,19.576-21.224,37.502-30.495,37.295c-6.798-0.207-32.348-47.803-49.038-92.104
	c-4.328-11.537-9.479-24.105-11.127-27.812c-1.648-3.711-7.829-20.193-13.803-36.678c-28.229-79.945-33.382-93.543-43.684-118.887
	c-11.745-28.436-17.1-38.529-37.086-70.676c-28.024-44.916-48.011-103.846-55.426-162.772c-2.267-19.369-1.033-73.765,2.061-83.449
	c1.234-3.501,3.708-13.186,5.562-21.634c14.629-65.111,57.282-108.998,122.596-126.719c24.108-6.386,46.568-6.593,78.709,0V329.041z
	"/>
</svg>
