<?xml version="1.0" encoding="utf-8"?>
<!-- Generator: Adobe Illustrator 15.0.0, SVG Export Plug-In . SVG Version: 6.00 Build 0)  -->
<!DOCTYPE svg PUBLIC "-//W3C//DTD SVG 1.1//EN" "http://www.w3.org/Graphics/SVG/1.1/DTD/svg11.dtd">
<svg version="1.1"
	 id="svg3809" sodipodi:docname="ubicaciones.svg" inkscape:version="0.91 r13725" xmlns:sodipodi="http://sodipodi.sourceforge.net/DTD/sodipodi-0.dtd" xmlns:inkscape="http://www.inkscape.org/namespaces/inkscape" xmlns:rdf="http://www.w3.org/1999/02/22-rdf-syntax-ns#" xmlns:svg="http://www.w3.org/2000/svg" xmlns:cc="http://creativecommons.org/ns#" xmlns:dc="http://purl.org/dc/elements/1.1/"
	 xmlns="http://www.w3.org/2000/svg" xmlns:xlink="http://www.w3.org/1999/xlink" x="0px" y="0px" width="1142px" height="1142px"
	 viewBox="0 0 1142 1142" enable-background="new 0 0 1142 1142" xml:space="preserve">
<sodipodi:namedview  pagecolor="#ffffff" objecttolerance="10" borderopacity="1" bordercolor="#666666" gridtolerance="10" guidetolerance="10" inkscape:pageopacity="0" inkscape:pageshadow="2" inkscape:window-width="1920" inkscape:window-height="1017" id="namedview3859" showgrid="false" inkscape:cy="713.75" inkscape:zoom="0.16532399" inkscape:cx="713.75" inkscape:window-x="1912" inkscape:window-y="-8" inkscape:window-maximized="1" inkscape:current-layer="svg3809">
	</sodipodi:namedview>
<path id="path3817" inkscape:connector-curvature="0" fill="#FFFFFF" d="M295.58,111.957c-3.03,0.378-12.496,1.704-20.825,2.84
	c-38.43,5.11-83.484,21.579-118.126,43.16C83.557,203.202,34.148,269.838,12.755,352.187c-7.38,27.826-9.653,46.002-9.842,74.587
	c0,48.083,12.682,89.542,47.516,156.556c47.325,90.865,126.644,199.905,230.384,316.141c14.955,16.847,29.344,31.424,31.992,32.56
	c6.058,2.84,14.388,2.84,20.446,0c10.978-4.921,102.224-112.069,152.201-178.513c48.084-64.176,83.107-118.13,109.988-169.81
	c24.23-46.569,39.374-85.756,44.865-116.992c3.218-18.74,3.597-57.17,0.567-78.561c-2.651-19.121-11.359-52.626-18.551-71.181
	c-41.459-106.958-136.492-183.815-250.075-202.368C359.184,112.335,305.044,110.632,295.58,111.957L295.58,111.957z
	 M378.306,163.826c119.262,25.178,208.427,126.457,217.135,246.667c2.081,30.667-0.191,49.787-9.656,78.942
	c-21.768,67.581-79.129,161.288-168.86,275.438c-31.047,39.566-91.434,110.744-93.896,110.744c-2.458,0-67.771-77.235-97.68-115.476
	c-70.613-89.92-123.617-172.268-149.74-232.279c-22.53-51.49-28.018-76.857-24.989-117.179
	c4.732-62.661,31.046-121.724,74.586-167.158c45.054-46.759,99.195-74.398,163.748-83.484
	C308.642,157.391,357.292,159.283,378.306,163.826L378.306,163.826z"/>
<path id="path3819" inkscape:connector-curvature="0" fill="#FFFFFF" d="M297.662,263.402c-18.363,3.407-44.866,15.712-60.2,28.016
	c-20.824,16.658-39.375,46.191-46.19,73.072c-4.166,16.47-4.166,48.083,0,64.364c7.761,29.532,25.934,57.17,49.786,75.154
	c24.612,18.553,50.734,27.451,81.97,27.451s57.361-8.897,81.971-27.451c23.853-17.983,42.024-45.622,49.786-75.154
	c4.166-16.28,4.166-47.894,0-64.364c-3.973-16.091-15.899-39.944-26.689-53.385c-18.553-23.662-50.734-42.403-81.214-47.894
	C326.815,259.805,317.54,259.805,297.662,263.402L297.662,263.402z M354.074,313.379c23.286,8.709,45.243,31.613,52.815,54.899
	c17.04,52.057-16.089,106.2-70.422,115.476c-59.061,10.033-112.635-45.813-100.331-104.497c7.005-33.509,35.59-62.85,67.962-69.666
	C317.16,306.942,341.581,308.834,354.074,313.379L354.074,313.379z"/>
<path id="path3821" inkscape:connector-curvature="0" fill="#FFFFFF" d="M795.345,111.957c-3.028,0.378-12.492,1.704-20.82,2.84
	c-37.104,5.11-82.35,21.201-115.479,41.457c-11.927,7.194-46.381,31.804-46.381,33.129c0,0.189,7.573,7.761,17.04,16.658
	l17.037,16.09l11.737-8.897c32.75-24.609,68.906-40.889,109.987-49.786c15.899-3.408,25.363-4.166,54.329-4.166
	c38.997,0,58.872,3.219,90.298,14.198c102.038,35.968,174.352,130.244,182.112,237.012c2.084,30.667-0.189,49.787-9.653,78.942
	c-21.771,67.581-79.13,161.288-168.861,275.438c-31.045,39.566-91.436,110.744-93.896,110.744c-2.462,0-68.15-77.804-97.683-115.476
	c-27.826-35.59-50.166-65.688-67.771-91.435l-16.659-24.232l-5.112,4.546c-2.648,2.459-7.384,6.246-10.601,8.138
	c-3.029,1.894-9.087,6.058-13.252,9.275c-4.163,3.03-7.951,5.87-8.328,6.059c-1.893,1.136,50.922,74.397,83.862,116.045
	c43.728,55.655,117.371,139.898,125.32,143.493c6.058,2.84,14.389,2.84,20.446,0c10.979-4.921,102.224-112.069,152.202-178.513
	c48.082-64.176,83.103-118.13,109.984-169.81c24.23-46.569,39.375-85.756,44.866-116.992c3.217-18.74,3.598-57.17,0.568-78.561
	c-2.65-19.121-11.359-52.626-18.553-71.181C1080.63,210.017,985.6,133.159,872.016,114.606
	C858.953,112.335,804.812,110.632,795.345,111.957L795.345,111.957z"/>
<path id="path3823" inkscape:connector-curvature="0" fill="#FFFFFF" d="M797.43,263.402c-18.362,3.407-44.866,15.712-60.199,28.016
	c-20.823,16.658-39.377,46.191-46.191,73.072c-4.164,16.47-4.164,48.083,0,64.364c7.762,29.532,25.935,57.17,49.787,75.154
	c24.608,18.553,50.734,27.451,81.97,27.451c31.236,0,57.359-8.897,81.97-27.451c23.854-17.983,42.026-45.622,49.787-75.154
	c4.165-16.28,4.165-47.894,0-64.364c-3.976-16.091-15.903-39.944-26.692-53.385c-18.552-23.662-50.735-42.403-81.212-47.894
	C826.58,259.805,817.306,259.805,797.43,263.402L797.43,263.402z M853.843,313.379c23.282,8.709,45.244,31.613,52.814,54.899
	c17.037,52.057-16.091,106.2-70.42,115.476c-59.065,10.033-112.639-45.813-100.332-104.497c7.003-33.509,35.59-62.85,67.959-69.666
	C816.928,306.942,841.347,308.834,853.843,313.379L853.843,313.379z"/>
<path id="path3825" inkscape:connector-curvature="0" fill="#FFFFFF" d="M469.739,963.644c-16.277,5.68-26.311,24.231-21.957,40.511
	c4.92,18.554,17.605,27.641,37.103,26.314c14.386-0.946,24.043-7.194,29.531-19.309c8.897-19.688-1.515-42.593-22.339-48.271
	C482.802,960.237,479.018,960.426,469.739,963.644z"/>
<path id="path3827" inkscape:connector-curvature="0" fill="#FFFFFF" d="M592.79,965.347c-15.333,7.761-22.339,22.528-19.121,39.944
	c1.515,8.14,11.167,19.498,19.498,22.905c3.408,1.515,10.601,2.65,15.903,2.65c33.884,0,47.324-43.351,19.498-63.037
	C617.587,960.049,604.904,959.101,592.79,965.347z"/>
<path id="path3829" inkscape:connector-curvature="0" fill="#FFFFFF" d="M192.219,967.05c-22.527,15.146-21.96,46.381,1.134,59.442
	c25.556,14.389,57.55-9.842,49.978-37.859c-1.136-4.354-3.787-10.223-5.869-13.252C228.564,962.889,204.901,958.534,192.219,967.05z
	"/>
<path id="path3831" inkscape:connector-curvature="0" fill="#FFFFFF" d="M318.863,966.483
	c-14.009,7.572-21.391,30.858-14.009,45.054c18.932,36.35,72.315,17.229,64.743-23.283c-1.515-7.57-10.413-18.741-18.362-22.907
	C343.662,961.562,327.382,962.129,318.863,966.483L318.863,966.483z"/>
<path id="path3833" inkscape:connector-curvature="0" fill="#FFFFFF" d="M736.283,967.432
	c-17.795,10.789-21.201,37.293-6.627,52.814c14.01,14.766,37.293,14.199,50.925-1.324c13.818-15.9,9.275-42.026-9.086-52.25
	C761.461,960.992,746.506,961.373,736.283,967.432L736.283,967.432z"/>
<path id="path3835" inkscape:connector-curvature="0" fill="#FFFFFF" d="M864.821,965.916c-24.799,12.116-24.799,48.84,0,60.955
	c34.454,16.661,66.256-23.85,41.647-53.193c-2.65-3.219-7.761-7.006-11.17-8.331C887.159,961.752,872.395,962.129,864.821,965.916z"
	/>
</svg>
