<?xml version="1.0" encoding="utf-8"?>
<!-- Generator: Adobe Illustrator 15.0.0, SVG Export Plug-In . SVG Version: 6.00 Build 0)  -->
<!DOCTYPE svg PUBLIC "-//W3C//DTD SVG 1.1//EN" "http://www.w3.org/Graphics/SVG/1.1/DTD/svg11.dtd">
<svg version="1.1"
	 id="svg3757" xmlns:inkscape="http://www.inkscape.org/namespaces/inkscape" inkscape:version="0.91 r13725" sodipodi:docname="tratamiento.svg" xmlns:cc="http://creativecommons.org/ns#" xmlns:dc="http://purl.org/dc/elements/1.1/" xmlns:rdf="http://www.w3.org/1999/02/22-rdf-syntax-ns#" xmlns:svg="http://www.w3.org/2000/svg" xmlns:sodipodi="http://sodipodi.sourceforge.net/DTD/sodipodi-0.dtd"
	 xmlns="http://www.w3.org/2000/svg" xmlns:xlink="http://www.w3.org/1999/xlink" x="0px" y="0px" width="1142px" height="1142px"
	 viewBox="0 0 1142 1142" enable-background="new 0 0 1142 1142" xml:space="preserve">
<sodipodi:namedview  inkscape:zoom="0.16532399" guidetolerance="10" objecttolerance="10" pagecolor="#ffffff" inkscape:pageopacity="0" inkscape:pageshadow="2" inkscape:window-width="1920" inkscape:window-height="1017" inkscape:window-x="1912" inkscape:window-y="-8" inkscape:window-maximized="1" inkscape:current-layer="svg3757" inkscape:cy="713.75" inkscape:cx="713.75" gridtolerance="10" showgrid="false" borderopacity="1" id="namedview3791" bordercolor="#666666">
	</sodipodi:namedview>
<g>
	<polygon fill-rule="evenodd" clip-rule="evenodd" fill="#575757" points="1119.375,884.91 1119.375,196.778 19.62,196.778 
		19.62,884.91 1119.375,884.91 	"/>
	<polygon fill-rule="evenodd" clip-rule="evenodd" fill="#FFFFFF" points="32.46,872.054 32.46,209.62 1106.486,209.62 
		1106.486,872.054 32.46,872.054 	"/>
	<polygon fill-rule="evenodd" clip-rule="evenodd" fill="#575757" points="1072.325,385.206 1072.325,241.546 64.435,241.546 
		64.435,385.206 1072.325,385.206 	"/>
	<polygon fill-rule="evenodd" clip-rule="evenodd" fill="#B2B2B2" points="1072.325,839.139 1072.325,695.477 64.435,695.477 
		64.435,839.139 1072.325,839.139 	"/>
	<polygon fill-rule="evenodd" clip-rule="evenodd" fill="#575757" points="409.474,654.353 478.357,427.162 539.831,427.162 
		470.931,654.353 409.474,654.353 	"/>
	<path fill-rule="evenodd" clip-rule="evenodd" fill="#575757" d="M381.956,427.226L326.664,523.5
		c-14.037,25.251-22.279,37.979-26.24,53.92h-0.862c1.007-20.205-1.836-44.977-2.076-59.03l-6.134-91.164H187.892l-1.055,6.101
		c26.577,0,42.355,13.383,46.699,40.679l20.14,180.347h63.693l128.775-227.126H381.956L381.956,427.226z"/>
	<path fill-rule="evenodd" clip-rule="evenodd" fill="#575757" d="M859.988,654.353l-1.692-33.811l-76.726-0.049l-15.747,33.859
		h-66.696L820.125,427.61h81.9l20.506,226.743H859.988L859.988,654.353z M852.929,520.338c-0.655-16.802-1.214-39.592-0.098-53.392
		h-0.907c-3.723,11.292-19.789,45.167-26.896,61.824l-22.839,49.797h53.902L852.929,520.338L852.929,520.338z"/>
	<path fill-rule="evenodd" clip-rule="evenodd" fill="#575757" d="M604.386,660.787c-43.425,0-72.222-13.75-92.76-26.031
		l29.26-44.752c18.462,10.35,32.933,22.264,66.311,22.264c10.701,0,21.051-2.78,26.911-12.969
		c8.546-14.756-1.963-22.711-25.984-36.286l-11.851-7.73c-35.6-24.324-51.027-47.434-34.241-87.762
		c10.731-25.777,38.984-45.341,85.652-45.341c32.182,0,62.336,13.942,79.935,27.534l-33.665,39.465
		c-17.17-13.864-31.368-20.875-47.659-20.875c-12.968,0-22.838,4.999-26.226,11.739c-6.387,12.697,2.077,21.337,20.764,32.965
		l14.119,8.944c43.218,27.263,53.519,55.836,42.675,82.538C679.003,650.504,642.525,660.787,604.386,660.787L604.386,660.787z"/>
</g>
</svg>
