<?xml version="1.0" encoding="utf-8"?>
<!-- Generator: Adobe Illustrator 15.0.0, SVG Export Plug-In . SVG Version: 6.00 Build 0)  -->
<!DOCTYPE svg PUBLIC "-//W3C//DTD SVG 1.1//EN" "http://www.w3.org/Graphics/SVG/1.1/DTD/svg11.dtd">
<svg version="1.1" id="Layer_1" xmlns="http://www.w3.org/2000/svg" xmlns:xlink="http://www.w3.org/1999/xlink" x="0px" y="0px"
	 width="500px" height="500px" viewBox="0 0 500 500" enable-background="new 0 0 500 500" xml:space="preserve">
<path d="M160.064,79.712c-28.656,5.624-49.185,28.63-51.15,53.816c-3.524,45.194,17.582,89.617,22.908,127.875
	c5.446,39.115,0.672,44.442,8,92.118c2.972,19.339,6.838,40.319,15.515,56.239c3.545,6.507,7.747,11.499,12.848,14.789
	c5.101,3.289,11.123,4.535,17.212,3.516c7.281-1.22,12.191-7.112,15.635-14.183c3.444-7.07,5.896-15.947,7.88-25.695
	c4.192-20.612,5.919-41.08,9.09-60.266c1.578-9.555,4.247-20.192,8.969-27.854c4.722-7.66,10.388-12.122,18.06-12.12
	c7.674,0,13.395,4.462,18.06,12.12c4.668,7.656,7.189,18.317,8.85,27.999c3.543,20.686,5.579,41.911,9.212,60.12
	c1.945,9.758,4.301,18.625,7.757,25.695c3.454,7.07,8.477,12.959,15.758,14.183c6.088,1.021,12.1-0.231,17.211-3.516
	c5.11-3.285,9.351-8.314,12.968-14.789c7.235-12.945,12.114-31.776,15.517-56.117c5.228-37.421,4.617-68.562,7.877-92.24
	c5.271-38.274,26.431-82.66,22.909-127.875c-1.923-24.677-18.932-48.148-45.938-52.968c-17.336-3.094-31.136-0.171-44.727,3.272
	c-13.592,3.444-27.138,7.389-51.275,7.908c-24.14,0.52-43.221-12.319-66.66-12.878C167.797,78.75,163.623,79.014,160.064,79.712
	L160.064,79.712z M171.215,88.803c19.897,0.044,40.476,13.686,67.098,13.123c26.62-0.562,41.444-4.912,54.717-8.274
	c13.335-3.379,24.998-5.773,40.364-3.031c22.089,3.942,35.971,23.186,37.574,43.756c3.229,41.451-17.114,84.857-22.788,125.572
	c-5.557,39.88-1.589,45.06-7.878,92.238c-3.155,23.663-8.301,41.646-14.425,52.605c-3.061,5.48-6.374,9.094-9.574,11.15
	c-3.2,2.058-6.263,2.699-10.062,2.062c-2.607-0.438-5.354-2.944-8.12-8.606c-2.768-5.662-5.143-13.82-7.031-23.15
	c-3.77-18.624-5.643-41.586-8.969-59.514c-2.143-11.554-5.2-23.328-10.423-31.999c-5.727-9.505-14.699-16.946-26.605-16.95
	c-11.907,0-20.892,7.479-26.727,16.95c-5.817,9.439-8.763,21.112-10.545,31.878c-3.383,20.435-5.372,41.442-8.97,59.635
	c-1.847,9.336-4.152,17.492-6.908,23.15c-2.757,5.658-5.636,8.169-8.243,8.606c-3.799,0.638-6.752-0.008-9.939-2.062
	s-6.527-5.67-9.576-11.15c-6.096-10.963-11.147-28.943-14.303-52.605c-6.293-47.189-2.449-52.373-8-92.238
	c-5.667-40.708-26.018-84.142-22.787-125.572c1.567-20.092,18.47-39.7,42.908-44.604C165.297,89.111,168.244,88.796,171.215,88.803z
	"/>
<path d="M302.973,153.102l-8.203,29.526l-29.176,8.362l29.176,8.361l8.203,29.526l8.248-29.526l29.178-8.361l-29.178-8.362
	L302.973,153.102L302.973,153.102z"/>
<path d="M158.735,142.891l-5.222,18.797l-18.575,5.323l18.575,5.323l5.222,18.797l5.25-18.797l18.576-5.323l-18.576-5.323
	L158.735,142.891z"/>
<path d="M74.501,190.14l-5.222,18.798l-18.575,5.322l18.575,5.323l5.222,18.797l5.251-18.797l18.575-5.323l-18.575-5.322
	L74.501,190.14z"/>
<path d="M418.863,160.13l-5.222,18.798l-18.575,5.324l18.575,5.322l5.222,18.798l5.251-18.798l18.575-5.322l-18.575-5.324
	L418.863,160.13L418.863,160.13z"/>
<path d="M211.077,199.568l-5.223,18.797l-18.574,5.324l18.574,5.323l5.223,18.797l5.252-18.797l18.576-5.323l-18.576-5.324
	L211.077,199.568z"/>
</svg>
