<?xml version="1.0" encoding="utf-8"?>
<!-- Generator: Adobe Illustrator 16.0.0, SVG Export Plug-In . SVG Version: 6.00 Build 0)  -->
<!DOCTYPE svg PUBLIC "-//W3C//DTD SVG 1.1//EN" "http://www.w3.org/Graphics/SVG/1.1/DTD/svg11.dtd">
<svg version="1.1" id="Capa_1" xmlns="http://www.w3.org/2000/svg" xmlns:xlink="http://www.w3.org/1999/xlink" x="0px" y="0px"
	 width="512px" height="512px" viewBox="0 0 512 512" enable-background="new 0 0 512 512" xml:space="preserve">
<g>
	<g>
		<path fill="#FFFFFF" d="M251.482,284.943h-10.094c-5.236,0-9.483-4.233-9.483-9.47c0-1.938,0.78-3.807,2.169-5.158
			c5.872-5.703,10.808-13.379,14.381-21.657c0.727,0.535,1.506,0.924,2.39,0.924c5.665,0,12.342-12.524,12.342-21.058
			c0-8.537-0.794-15.458-6.47-15.458c-0.676,0-1.378,0.116-2.104,0.297c-0.402-23.15-6.249-52.028-41.597-52.028
			c-36.881,0-41.181,28.827-41.596,51.951c-0.521-0.104-1.041-0.22-1.52-0.22c-5.677,0-6.457,6.922-6.457,15.458
			c0,8.534,6.651,21.058,12.329,21.058c0.701,0,1.351-0.195,1.961-0.546c3.56,8.146,8.43,15.667,14.212,21.319
			c1.39,1.35,2.168,3.193,2.168,5.146c0,5.232-4.248,9.481-9.483,9.481h-10.106c-21.591,0-39.089,17.498-39.089,39.09v10.835
			c0,6.808,5.521,12.341,12.341,12.341H278.23c6.807,0,12.329-5.533,12.329-12.341v-10.835
			C290.572,302.456,273.071,284.943,251.482,284.943z"/>
		<path fill="#FFFFFF" d="M368.516,177.704H259.12c3.157,6.989,5.417,15.589,6.353,26.229c2.34,1.442,4.092,3.768,5.521,6.572
			h97.521c5.067,0,9.146-4.092,9.146-9.145v-14.511C377.662,181.81,373.583,177.704,368.516,177.704z"/>
		<path fill="#FFFFFF" d="M368.516,237.476h-95.288c-2.585,9.768-8.95,19.992-17.771,22.72c-0.259,0.481-0.558,0.896-0.83,1.377
			v8.704h113.878c5.053,0,9.145-4.094,9.145-9.158V246.62C377.662,241.567,373.583,237.476,368.516,237.476z"/>
		<path fill="#FFFFFF" d="M368.516,297.246H294.13c4.911,7.769,7.795,16.928,7.795,26.788v6.014h66.591
			c5.067,0,9.146-4.091,9.146-9.146v-14.51C377.662,301.338,373.583,297.246,368.516,297.246z"/>
		<path fill="#FFFFFF" d="M407.827,86.508H105.269c-31.036,0-56.185,25.15-56.185,56.185v223.132
			c0,31.049,25.149,56.186,56.185,56.186h302.558c31.036,0,56.173-25.149,56.173-56.186V142.693
			C464,111.658,438.864,86.508,407.827,86.508z M437.485,365.825c0,16.356-13.301,29.658-29.657,29.658H105.269
			c-16.355,0-29.658-13.302-29.658-29.658V142.693c0-16.355,13.303-29.658,29.658-29.658h302.558
			c16.356,0,29.657,13.303,29.657,29.658V365.825L437.485,365.825z"/>
	</g>
</g>
</svg>
