<?xml version="1.0" encoding="utf-8"?>
<!-- Generator: Adobe Illustrator 15.0.0, SVG Export Plug-In . SVG Version: 6.00 Build 0)  -->
<!DOCTYPE svg PUBLIC "-//W3C//DTD SVG 1.1//EN" "http://www.w3.org/Graphics/SVG/1.1/DTD/svg11.dtd">
<svg version="1.1" id="Layer_1" xmlns="http://www.w3.org/2000/svg" xmlns:xlink="http://www.w3.org/1999/xlink" x="0px" y="0px"
	 width="500px" height="500px" viewBox="0 0 500 500" enable-background="new 0 0 500 500" xml:space="preserve">
<g>
	<path d="M285.398,425.828c5.516,6.025,12.216,6.502,14.133,6.502h0.01c12.185,0,17.604-5.622,25.153-18.228
		c6.877-11.552,15.079-34.56,15.064-78.658c-0.208-30.628,7.924-47.312,16.354-61.914l1.108-2.005
		c7.747-13.976,14.447-26.049,14.725-55.655l-0.071-4.792c-0.789-21.161-8.606-36.159-24.677-47.281
		c-12.974-8.749-31.181-13.571-51.243-13.571h-0.674c-16.11,0-33.058,3.299-45.322,8.815l-0.759,0.334l-0.673-0.299
		c-9.614-4.377-22.324-7.383-35.784-8.471c-0.278-0.02-0.531-0.01-0.81-0.03l-21.703,0.298c-0.278,0-0.562,0.021-0.85,0.051
		c-15.003,1.7-28.205,6.168-38.229,12.949c-16,11.031-23.828,26.014-24.618,47.312c-0.04,1.7-0.061,3.254-0.061,4.751
		c0.228,29.424,6.917,41.482,14.654,55.448l1.285,2.312c8.329,14.433,16.455,31.075,16.228,61.809
		c0,44.059,8.182,67.057,15.064,78.618c7.61,12.66,12.286,18.207,25.164,18.207c12.205,0,19.451-10.536,20.291-20.802
		c0.516-5.237,0.602-11.249,0.713-17.609c0.228-14.478,0.516-32.485,6.036-51.152c2.262-7.383,4.833-15.732,9.756-23.165
		c2.808-4.24,8.774-8.53,14.755-8.53c4.687,0,8.794,2.797,12.215,8.303c4.762,7.681,7.621,15.97,9.984,23.746
		c5.434,18.237,7.776,39.393,6.284,56.602C277.885,411.229,280.07,420.014,285.398,425.828z M241.447,174.767l4.23,1.888
		c2.222,0.997,4.771,0.987,6.998,0.01l4.301-1.908c8.451-3.805,20.181-6.365,31.782-7.084
		c-4.654,12.544-20.548,21.814-39.433,21.814c-18.809,0-34.651-9.199-39.383-21.663l1.807-0.02
		C222.967,168.736,233.761,171.261,241.447,174.767z M277.242,310.307c-6.584-10.605-16.112-16.445-26.834-16.445
		c-12.67,0-23.737,8.142-29.106,16.228c-6.284,9.508-9.371,19.547-11.851,27.612c-0.01,0.031-0.146,0.485-0.157,0.517
		c-6.087,20.584-6.396,39.908-6.644,55.423c-0.101,6.264-0.187,11.673-0.643,16.344c0,0.061-0.622,5.142-3.152,5.142
		c-4.063,0-4.488,0-10.399-9.822c-4.716-7.925-12.62-27.521-12.62-69.724c0.258-34.994-9.437-54.729-18.459-70.333l-1.215-2.196
		c-7.134-12.889-12.295-22.199-12.493-47.176c0-1.315,0.02-2.757,0.05-4.18c0.582-15.686,5.723-25.746,17.128-33.604
		c7.581-5.142,17.969-8.597,30.047-10.014l1.275-0.02c4.736,21.91,28.523,38.633,57.153,38.633
		c28.649,0,52.457-16.753,57.163-38.684c12.267,1.286,23.246,4.762,31.015,10.004c11.455,7.924,16.592,18.009,17.178,33.472
		l0.062,4.312c-0.238,25.153-5.404,34.484-12.56,47.393l-1.048,1.887c-9.112,15.782-18.817,35.558-18.58,70.445
		c0.02,42.242-7.909,61.851-12.631,69.764c-5.809,9.717-6.907,9.843-10.246,9.843c-2.322-0.279-4.438-4.727-3.638-13.916
		c1.7-19.537-0.829-42.505-6.947-63.053C286.365,329.22,283.045,319.662,277.242,310.307z"/>
	<path d="M307.385,87.016c0-12.847-7.136-20.22-19.588-20.22c-4.676,0-9.786,0.891-15.706,1.918
		c-6.887,1.205-14.704,2.56-22.771,2.56c-8.066,0-15.884-1.355-22.771-2.56c-5.92-1.027-11.031-1.918-15.707-1.918
		c-12.453,0-19.587,7.373-19.587,20.22c0,25.695,26.039,46.598,58.064,46.598C281.345,133.613,307.385,112.71,307.385,87.016z
		 M208.47,87.016c0-1.543,0.167-2.424,0.289-2.849c0.344-0.081,0.997-0.167,2.095-0.167c3.183,0,7.62,0.769,12.751,1.66
		c7.206,1.255,16.167,2.818,25.726,2.818c9.558,0,18.52-1.563,25.726-2.818c5.131-0.891,9.567-1.66,12.75-1.66
		c1.099,0,1.752,0.091,2.096,0.167c0.115,0.425,0.288,1.305,0.288,2.849c0,16.207-18.322,29.394-40.855,29.394
		S208.47,103.223,208.47,87.016z"/>
</g>
</svg>
