<?xml version="1.0" encoding="utf-8"?>
<!-- Generator: Adobe Illustrator 16.0.0, SVG Export Plug-In . SVG Version: 6.00 Build 0)  -->
<!DOCTYPE svg PUBLIC "-//W3C//DTD SVG 1.1//EN" "http://www.w3.org/Graphics/SVG/1.1/DTD/svg11.dtd">
<svg version="1.1" id="Capa_1" xmlns="http://www.w3.org/2000/svg" xmlns:xlink="http://www.w3.org/1999/xlink" x="0px" y="0px"
	 width="695.279px" height="841.891px" viewBox="0 0 695.279 841.891" enable-background="new 0 0 695.279 841.891"
	 xml:space="preserve">
<path d="M413.277,191.855c0-7.075-5.733-12.809-12.81-12.809H264.779c-7.075,0-12.809,5.733-12.809,12.809v81.44
	c0,7.075,5.733,12.809,12.809,12.809h122.88v36.182l-122.88,122.92l-31.649-31.662c-2.683-2.684-6.437-4.034-10.195-3.703
	c-3.779,0.337-7.215,2.332-9.381,5.446L91.431,590.916c-2.722,3.915-3.043,9.018-0.833,13.244c2.208,4.229,6.584,6.876,11.352,6.876
	h488.49c0.014,0.002,0.027,0.002,0.034,0c7.075,0,12.809-5.733,12.809-12.809c0-3.045-1.063-5.843-2.837-8.041L413.277,323.542
	V191.855z M277.586,260.486v-55.823h110.072v55.823H277.586z M126.455,585.421l99.385-142.933l29.878,29.892
	c2.403,2.4,5.661,3.752,9.06,3.752c3.396,0,6.655-1.352,9.058-3.752l124.91-124.951L565.8,585.422L126.455,585.421L126.455,585.421z
	"/>
</svg>
