<?xml version="1.0" encoding="utf-8"?>
<!-- Generator: Adobe Illustrator 15.0.0, SVG Export Plug-In . SVG Version: 6.00 Build 0)  -->
<!DOCTYPE svg PUBLIC "-//W3C//DTD SVG 1.1//EN" "http://www.w3.org/Graphics/SVG/1.1/DTD/svg11.dtd">
<svg version="1.1" id="Layer_1" xmlns="http://www.w3.org/2000/svg" xmlns:xlink="http://www.w3.org/1999/xlink" x="0px" y="0px"
	 width="500px" height="500px" viewBox="0 0 500 500" enable-background="new 0 0 500 500" xml:space="preserve">
<g>
	<path d="M483.732,203.509h-13.428c1.575-6.907,2.567-15.187,2.671-25.731c0-0.857-0.025-1.729-0.052-2.618l-0.052-1.98
		c-0.755-20.403-8.668-35.533-24.26-46.295c-12.557-8.46-30.078-13.117-49.901-13.117c-15.213,0-31.186,3.076-42.858,8.216
		c-9.184-4.062-21.106-6.842-33.67-7.842c-0.341-0.026-0.676-0.039-1.018-0.039l-20.204,0.259c-0.368,0.005-0.729,0.031-1.097,0.07
		c-14.445,1.651-27.169,5.959-36.893,12.518c-5.353,3.689-9.726,7.939-13.293,12.736c-3.564-4.797-7.969-9.08-13.361-12.801
		c-12.569-8.46-30.078-13.117-49.913-13.117c-15.213,0-31.187,3.076-42.853,8.216c-9.196-4.062-21.107-6.842-33.682-7.842
		c-0.329-0.026-0.658-0.039-1.006-0.039l-20.191,0.264c-0.38,0.007-0.741,0.033-1.109,0.072
		c-14.433,1.65-27.168,5.958-36.894,12.517c-15.516,10.704-23.416,25.833-24.144,46.637l-0.078,4.256
		c0.078,10.505,1.058,18.766,2.631,25.66h-13.4c-6.049,0-10.957,4.914-10.957,10.97c0,6.049,4.914,10.962,10.957,10.962h21.816
		c0.954,1.8,1.929,3.566,2.921,5.353l1.231,2.244C49.232,246.07,56.61,261.135,56.397,289c-0.052,41.641,7.796,63.566,14.394,74.65
		c6.83,11.415,11.975,18.354,25.924,18.354c13.265,0,21.036-11.195,21.816-21.979c0.503-5.022,0.593-10.703,0.69-16.715
		c0.213-13.265,0.477-29.761,5.481-46.624c0.567-1.954,4.056-11.699,17.057-11.699l1.309,0.026
		c14.761,0.67,19.108,11.233,19.398,11.942c4.952,16.6,7.106,35.85,5.746,51.487c-1.02,11.575,1.27,20.507,6.816,26.55
		c5.958,6.502,13.252,7.018,15.354,7.018h0.013c12.659,0,18.424-5.92,25.924-18.38c6.578-11.06,14.419-32.985,14.394-74.678
		c-0.187-27.8,7.19-42.871,14.877-56.136l1.109-2.019c0.981-1.773,1.967-3.553,2.908-5.353h0.199
		c0.956,1.799,1.929,3.566,2.908,5.353l1.247,2.244c7.57,13.033,14.947,28.097,14.733,55.962
		c-0.051,41.641,7.797,63.566,14.395,74.651c6.83,11.414,11.977,18.354,25.931,18.354c13.265,0,21.022-11.195,21.816-21.978
		c0.503-5.023,0.593-10.705,0.678-16.716c0.212-13.266,0.477-29.762,5.493-46.625c0.568-1.954,4.044-11.697,17.058-11.697
		l1.31,0.025c14.761,0.671,19.106,11.233,19.385,11.943c4.965,16.598,7.105,35.848,5.745,51.487
		c-1.02,11.574,1.271,20.506,6.816,26.548c5.959,6.502,13.266,7.018,15.354,7.018h0.013c12.659,0,18.438-5.92,25.925-18.379
		c6.584-11.061,14.419-32.986,14.394-74.678c-0.174-27.8,7.19-42.871,14.89-56.136l1.109-2.019c0.979-1.773,1.954-3.553,2.908-5.353
		h21.829c6.049,0,10.957-4.914,10.957-10.962C494.694,208.423,489.781,203.509,483.732,203.509z M260.745,173.986
		c0.607-17.038,7.76-24.208,14.588-28.917c6.61-4.463,15.754-7.494,26.485-8.783l19.107-0.245
		c10.041,0.857,19.663,3.096,26.512,6.21l3.604,1.606l26.717,14.187c1.638,0.871,3.398,1.284,5.126,1.284
		c3.929,0,7.732-2.115,9.7-5.823c2.831-5.346,0.807-11.981-4.533-14.826l-3.592-1.909c4.822-0.69,9.859-1.077,14.864-1.077
		c14.696,0,28.2,3.418,36.943,9.312c6.915,4.765,14.072,11.943,14.697,28.729l0.09,3.94c-0.115,11.666-1.359,19.398-3.437,25.834
		h-52.171v-17.457c0-6.055-4.913-10.963-10.969-10.963h-56.84c-6.055,0-10.969,4.908-10.969,10.963v17.457h-52.571
		c-2.075-6.417-3.328-14.117-3.397-25.731L260.745,173.986z M338.589,197.021h34.927v34.927h-34.927V197.021z M48.381,177.778
		l0.064-3.792c0.606-17.038,7.757-24.208,14.587-28.917c6.61-4.463,15.767-7.494,26.485-8.783l19.12-0.245
		c10.042,0.857,19.65,3.096,26.511,6.21l3.605,1.606l26.704,14.187c1.65,0.871,3.398,1.284,5.139,1.284
		c3.928,0,7.719-2.115,9.687-5.823c2.844-5.346,0.819-11.981-4.534-14.826l-3.592-1.909c4.824-0.69,9.86-1.077,14.864-1.077
		c14.697,0,28.201,3.418,36.952,9.312c6.913,4.765,14.058,11.943,14.684,28.729l0.09,3.94c-0.103,11.666-1.348,19.398-3.425,25.834
		h-52.17v-17.457c0-6.055-4.914-10.963-10.957-10.963h-56.852c-6.05,0-10.957,4.908-10.957,10.963v17.457H51.793
		C49.703,197.092,48.465,189.392,48.381,177.778z M126.308,197.021h34.914v34.927h-34.914V197.021z M208.781,289.025
		c0.026,38.563-7.081,56.279-11.285,63.354c-3.753,6.236-5.179,7.454-5.301,7.583c-0.039,0.014-0.303,0.078-1.084,0.104
		c-0.394-0.567-1.65-2.985-1.058-9.711c1.613-18.541-0.793-40.294-6.687-60.006c-0.354-1.06-8.97-25.874-39.299-27.246
		c-0.78-0.026-1.547-0.052-2.302-0.052c-24.577,0-35.772,18.34-38.138,27.633c-5.791,19.495-6.082,37.673-6.321,52.267
		c-0.09,5.778-0.161,10.782-0.606,15.181c-0.039,0.619-0.303,1.425-0.554,1.929c-0.542,0-0.896-0.025-1.096-0.025
		c-0.116,0-0.161,0.011-0.174,0.025c-0.646-0.541-2.077-2.341-5.243-7.647c-4.244-7.121-11.35-24.829-11.298-63.314
		c0.226-31.013-7.771-49.36-15.793-63.657h41.839v17.457c0,6.056,4.914,10.97,10.957,10.97h56.852
		c6.049,0,10.957-4.914,10.957-10.97V225.44h41.427C216.501,239.893,208.575,258.22,208.781,289.025z M421.075,289.025
		c0.026,38.563-7.067,56.279-11.285,63.354c-3.741,6.236-5.165,7.454-5.301,7.583c-0.026,0.014-0.29,0.078-1.083,0.104
		c-0.395-0.567-1.65-2.985-1.058-9.711c1.611-18.541-0.781-40.294-6.675-60.006c-0.355-1.06-8.971-25.874-39.3-27.246
		c-0.792-0.026-1.56-0.052-2.302-0.052c-24.575,0-35.771,18.34-38.15,27.633c-5.778,19.495-6.081,37.673-6.312,52.267
		c-0.104,5.778-0.175,10.782-0.607,15.181c-0.052,0.619-0.304,1.425-0.555,1.929c-0.542,0-0.91-0.025-1.096-0.025
		c-0.116,0-0.175,0.011-0.175,0.025c-0.656-0.541-2.076-2.341-5.25-7.647c-4.229-7.121-11.35-24.829-11.298-63.314
		c0.239-31.013-7.757-49.36-15.78-63.657h41.815v17.457c0,6.056,4.914,10.97,10.969,10.97h56.84c6.055,0,10.969-4.914,10.969-10.97
		V225.44h41.439C428.808,239.893,420.882,258.22,421.075,289.025z"/>
</g>
<rect x="137.901" y="207.705" fill="#020202" width="11.737" height="11.737"/>
<rect x="350.447" y="207.705" fill="#020202" width="11.736" height="11.737"/>
</svg>
