<?xml version="1.0" encoding="utf-8"?>
<!-- Generator: Adobe Illustrator 16.0.3, SVG Export Plug-In . SVG Version: 6.00 Build 0)  -->
<!DOCTYPE svg PUBLIC "-//W3C//DTD SVG 1.1//EN" "http://www.w3.org/Graphics/SVG/1.1/DTD/svg11.dtd">
<svg version="1.1" id="Layer_1" xmlns="http://www.w3.org/2000/svg" xmlns:xlink="http://www.w3.org/1999/xlink" x="0px" y="0px"
	 width="500px" height="500px" viewBox="0 0 500 500" enable-background="new 0 0 500 500" xml:space="preserve">
<g>
	<path fill="#020202" d="M446.522,181.379c-14.801-17.521-35.176-27.169-57.368-27.169c-11.808,0-24.024,5.041-33.299,9.717
		c-0.506,0.255-1.578,0.465-1.61-0.614c-1.979-23.389-10.749-44.085-25.11-61.085c-17.436-20.636-41.431-31.999-67.568-31.999
		c-20.491,0-42.335,12.739-58.299,22.05c-4.846,2.826-12.798,8-15.119,8c-2.308,0-10.192-5.143-15.053-7.982
		c-15.923-9.313-37.728-22.067-58.36-22.067c-26.139,0-50.133,11.363-67.569,31.999c-16.557,19.592-25.673,45.374-25.673,72.59
		c0,38.488,13.047,93.152,34.899,146.232c9.726,23.627,20.088,44.058,29.966,59.084c12.025,18.293,22.511,27.186,32.054,27.186
		c4.414,0,12.484-1.931,16.915-14.887c3.976-11.627,7.541-24.926,11.342-39.101c9.323-34.795,22.095-82.454,40.844-82.454
		c0,0,1.912,0.063,2.04,1.752c4.099,28.691,13.444,60.566,26.855,93.146c8.172,19.851,16.882,37.021,25.19,49.659
		c10.287,15.643,19.355,23.247,27.723,23.247c3.98,0,11.253-1.719,15.183-13.221c3.348-9.787,6.339-20.953,9.519-32.81
		c7.71-28.773,18.27-68.184,33.145-68.184h1.061c6.396,0,12.326,6.258,18.139,19.133c6.121,13.546,10.817,31.729,15.358,49.317
		c3.037,11.759,5.907,22.865,9.155,32.503c3.86,11.449,11.064,13.167,15.017,13.168c8.34,0,17.403-7.721,27.704-23.599
		c8.286-12.765,17.014-30.103,25.239-50.136c18.438-44.927,29.449-90.513,29.449-121.944
		C468.289,219.842,460.561,197.99,446.522,181.379z M187.107,242.911c0,2.94,0.094,6.046,0.278,9.27
		c0.018,0.285,0.197,1.248-1.121,1.155c-14.772,0.039-25.751,10.705-35.97,33.223c-7.991,17.606-14.023,40.13-19.858,61.908
		l-0.041,0.154c-3.688,13.749-7.167,26.731-10.936,37.739c-0.499,1.463-0.856,2.83-1.416,3.019
		c-1.495,0.508-7.237-3.319-17.824-19.427c-9.127-13.882-19.193-33.777-28.352-56.024C51.205,263.74,38.37,210.434,38.37,174.816
		c0-42.642,28.566-86.75,76.365-86.75c12.392,0,28.743,6.015,43.739,16.086c2.175,1.46,5.295,3.998,8.316,6.45
		c1.218,0.993,2.419,1.969,3.539,2.861c3.619,2.86,8.503,6.604,14.239,10.173c3.015,1.882,5.76,3.554,8.83,4.934
		c12.441,5.581,25.631,8.414,39.201,8.414c13.859,0,34.252-3.768,33.915-6.694c-0.335-2.925-24.935,1.261-50.478-7.492
		c-6.636-2.275-15.189-4.828-15.185-7.689c0.001-0.79,2.403-2.183,4.099-3.253c1.81-1.142,3.864-2.44,6.478-3.965
		c14.345-8.367,33.993-19.826,50.137-19.826c46.943,0,75.332,42.54,76.338,84.455c0.014,0.466,0.076,1.321-0.813,1.896
		c-3.049,1.768-7.539,4.909-9.39,4.909c-2.102,0-8.749-4.558-12.083-6.506c-13.428-7.855-31.821-18.613-49.368-18.613
		c-22.191,0-42.568,9.65-57.37,27.17C194.836,197.99,187.107,219.842,187.107,242.911z M423.884,357.996
		c-7.702,18.77-16.129,35.55-23.723,47.246c-6.808,10.49-11.14,16.854-13.022,15.579c-0.53-0.359-1.331-2.477-1.525-3.055
		c-3.039-9.011-5.207-17.941-8.166-29.388c-4.727-18.316-9.618-37.253-16.368-52.202c-8.799-19.474-19.543-28.938-32.851-28.938
		h-1.061c-12.854,0-23.37,9.392-32.141,28.712c-6.723,14.813-11.79,33.719-16.687,52.007c-3.095,11.532-6.011,22.426-9.164,31.646
		c-0.219,0.642-0.541,1.372-0.892,1.537c-1.53,0.702-5.909-4.295-13.3-15.539c-7.597-11.551-15.985-28.136-23.629-46.698
		c-17.241-41.879-27.95-86.324-27.95-115.992c0-35.132,23.503-71.47,62.834-71.47c10.177,0,23.645,4.968,36.031,13.287
		c1.768,1.185,4.333,3.271,6.855,5.321c1.036,0.841,2.053,1.666,3.002,2.418c3.038,2.411,7.148,5.563,12.017,8.591
		c2.568,1.602,4.9,3.021,7.522,4.197c10.548,4.732,21.729,7.134,33.236,7.134c11.786,0,34.44-3.521,34.205-7.5
		c-0.149-2.553-25.457,0.791-47.787-6.634c-4.539-1.509-11.001-3.871-11.161-4.785c-0.151-0.86,1.342-1.761,2.166-2.282
		c1.505-0.95,3.207-2.025,5.382-3.292c11.907-6.945,28.212-16.456,41.449-16.456c39.332,0,62.835,36.339,62.835,71.47
		C451.99,271.668,441.221,315.768,423.884,357.996z"/>
</g>
</svg>
