<?xml version="1.0" encoding="utf-8"?>
<!-- Generator: Adobe Illustrator 15.0.0, SVG Export Plug-In . SVG Version: 6.00 Build 0)  -->
<!DOCTYPE svg PUBLIC "-//W3C//DTD SVG 1.1//EN" "http://www.w3.org/Graphics/SVG/1.1/DTD/svg11.dtd">
<svg version="1.1" id="Layer_1" xmlns="http://www.w3.org/2000/svg" xmlns:xlink="http://www.w3.org/1999/xlink" x="0px" y="0px"
	 width="500px" height="500px" viewBox="0 0 500 500" enable-background="new 0 0 500 500" xml:space="preserve">
<g>
	<g>
		<circle cx="197.945" cy="272.062" r="25.569"/>
		<circle cx="314.956" cy="267.728" r="25.569"/>
		<path d="M257.75,299.798c-99.242,0-107.043,31.203-107.043,40.736c0,24.27,13.435,45.938,34.669,61.106c0,0-5.2-4.334,0.434,0.433
			c5.2,4.768,20.802,11.269,20.802,11.269c15.168,6.5,32.936,10.4,51.571,10.4c58.505,0,106.177-37.27,106.177-83.208
			C364.36,331.001,356.993,299.798,257.75,299.798z M257.75,402.073c-18.635,0-35.97-4.334-50.271-11.701
			c-1.3-0.866-1.3-2.601,0.434-3.033c9.967-3.033,25.569-6.067,47.67-6.067c24.27,0,41.17,3.467,50.705,6.934
			c1.3,0.435,1.3,2.167,0,3.034C291.987,397.739,275.519,402.073,257.75,402.073z M321.89,380.404c-0.434,0.435-1.301,0.435-2.167,0
			c-14.302-9.533-44.638-12.567-64.572-12.567c-19.069,0-47.238,2.6-62.406,11.268c-0.433,0.434-1.3,0.434-1.733,0
			c-8.234-7.367-13.868-16.035-16.902-25.568c-0.433-1.301,0.434-2.167,1.734-2.167h12.135v0.866c0,2.601,2.167,4.334,4.333,4.334
			h7.367c2.6,0,4.333-2.167,4.333-4.334v-0.866h9.968v0.866c0,2.601,2.167,4.334,4.334,4.334h7.367c2.6,0,4.333-2.167,4.333-4.334
			v-0.866h9.968v0.866c0,2.601,2.167,4.334,4.334,4.334h7.367c2.601,0,4.334-2.167,4.334-4.334v-0.866h9.968v0.866
			c0,2.601,2.167,4.334,4.334,4.334h7.367c2.601,0,4.334-2.167,4.334-4.334v-0.866h9.968v0.866c0,2.601,2.166,4.334,4.333,4.334
			h7.367c2.601,0,4.334-2.167,4.334-4.334v-0.866h9.968v0.866c0,2.601,2.167,4.334,4.334,4.334h7.367
			c2.601,0,4.333-2.167,4.333-4.334v-0.866h5.201c0.866,0,1.733,0.866,1.733,2.167C337.924,363.504,331.423,373.037,321.89,380.404z
			 M340.958,347.035h-5.201c-0.866,0-1.733-0.866-1.733-1.733l0,0c0-3.467-2.601-6.067-6.066-6.067h-3.901
			c-3.467,0-6.066,2.601-6.066,6.067l0,0c0,0.867-0.866,1.733-1.734,1.733h-6.933c-0.867,0-1.734-0.866-1.734-1.733l0,0
			c0-3.467-2.6-6.067-6.067-6.067h-3.899c-3.468,0-6.068,2.601-6.068,6.067l0,0c0,0.867-0.866,1.733-1.732,1.733h-6.935
			c-0.866,0-1.733-0.866-1.733-1.733l0,0c0-3.467-2.601-6.067-6.067-6.067h-3.9c-3.467,0-6.066,2.601-6.066,6.067l0,0
			c0,0.867-0.868,1.733-1.734,1.733h-6.934c-0.867,0-1.733-0.866-1.733-1.733l0,0c0-3.467-2.6-6.067-6.068-6.067h-3.9
			c-3.467,0-6.067,2.601-6.067,6.067l0,0c0,0.867-0.867,1.733-1.733,1.733h-6.934c-0.867,0-1.733-0.866-1.733-1.733l0,0
			c0-3.467-2.6-6.067-6.067-6.067h-3.9c-3.467,0-6.067,2.601-6.067,6.067l0,0c0,0.867-0.867,1.733-1.733,1.733h-6.934
			c-0.867,0-1.733-0.866-1.733-1.733l0,0c0-3.467-2.6-6.067-6.067-6.067h-3.9c-3.467,0-6.067,2.601-6.067,6.067l0,0
			c0,0.867-0.867,1.733-1.733,1.733h-12.568c-0.867,0-1.733-0.434-1.733-1.301c0-1.732-0.433-3.467-0.433-4.766
			c0-5.202,26.436-19.069,85.375-19.069c61.972-0.433,87.975,13.435,87.975,18.635c0,1.733,0,3.468-0.434,4.768
			C342.258,346.602,341.825,347.035,340.958,347.035z"/>
		<path d="M124.271,156.784L124.271,156.784C92.202,190.154,74,234.792,74,282.463c0,100.108,81.474,181.583,181.583,181.583
			c100.109,0,182.017-81.475,182.017-181.583c0-44.204-15.601-84.508-42.037-115.711c16.035-22.969,21.236-52.438,25.569-80.174
			c1.3-8.667-4.767-17.769-13.435-14.735c-70.64,22.535-134.346-28.603-204.119-24.269c-48.104,2.6-94.909,42.037-83.641,100.109
			 M188.844,73.577c27.303-6.934,55.472,1.3,81.907,8.667c42.038,12.134,83.642,24.702,126.546,16.468
			c-3.034,18.202-7.801,36.404-17.335,51.139c-2.167,3.033-4.334,6.067-6.935,9.101c-3.467,3.9-7.367,6.934-11.268,9.534
			c-20.802,13.868-48.538,16.035-71.073,16.035c-41.604,0-83.208-13.001-121.778-31.203c-8.667-4.333-28.169-13.435-28.169-14.301
			C135.539,105.213,160.675,80.511,188.844,73.577z M148.106,169.785c13.435,6.501,26.87,13.001,41.171,18.202
			c-21.236,29.469-58.072,34.67-77.574,35.537C119.938,203.155,132.072,184.954,148.106,169.785z M255.583,438.044
			c-85.808,0-155.581-69.774-155.581-155.581c0-11.268,1.3-22.536,3.467-33.37c0.866,0,1.733,0,3.033,0
			c9.534,0,23.835-0.867,39.437-4.767c30.769-7.801,54.171-24.269,68.473-47.671c32.07,9.534,65.005,14.301,97.942,10.834
			c22.535-2.167,45.938-7.801,65.006-22.103c21.234,26.436,33.803,60.239,33.803,97.076
			C411.598,368.27,341.391,438.044,255.583,438.044z"/>
	</g>
</g>
</svg>
