<?xml version="1.0" encoding="utf-8"?>
<!-- Generator: Adobe Illustrator 15.0.0, SVG Export Plug-In . SVG Version: 6.00 Build 0)  -->
<!DOCTYPE svg PUBLIC "-//W3C//DTD SVG 1.1//EN" "http://www.w3.org/Graphics/SVG/1.1/DTD/svg11.dtd">
<svg version="1.1" id="Layer_1" xmlns="http://www.w3.org/2000/svg" xmlns:xlink="http://www.w3.org/1999/xlink" x="0px" y="0px"
	 width="500px" height="500px" viewBox="0 0 500 500" enable-background="new 0 0 500 500" xml:space="preserve">
<g>
	<rect x="289.395" y="85.814" width="5.864" height="9.134"/>
	<rect x="314.304" y="85.814" width="5.863" height="9.134"/>
	<polygon points="297.557,85.814 296.468,85.814 296.468,94.948 312.969,94.948 312.969,85.814 311.877,85.814 	"/>
	<rect x="301.517" y="75.326" width="7.601" height="15.857"/>
	<g>
		<rect x="292.083" y="52.821" width="26.469" height="1.372"/>
		<path d="M318.552,25.206v-7.811c0-5.313-4.307-9.62-9.619-9.62h-7.23c-5.312,0-9.619,4.308-9.619,9.62v7.811H318.552z"/>
		<path d="M318.552,32.431v-2.72h-26.469v2.72c0,1.915,0.567,3.696,1.532,5.196c0.4,1.314,0.734,2.863,0.734,4.422
			c0,1.569-0.279,3.027-0.633,4.257c-0.716,1.062-1.219,2.277-1.463,3.582c-0.096,0.507-0.147,1.03-0.16,1.561h26.447
			c-0.014-0.531-0.064-1.054-0.16-1.561c-0.11-0.583-0.275-1.147-0.484-1.688c-0.511-1.907-1.232-5.018-1.144-7.13
			c0.053-1.271,0.315-2.724,0.617-4.019C318.121,35.678,318.552,34.105,318.552,32.431z"/>
		<rect x="292.083" y="26.576" width="26.469" height="1.763"/>
		<path d="M292.083,55.563v11.14c0,5.313,4.309,9.62,9.619,9.62h7.23c5.315,0,9.619-4.308,9.619-9.62v-11.14H292.083z"/>
	</g>
</g>
<path d="M390.45,232.877c-0.552-29.082-14.298-50.872-33.375-63.392c-7.935-5.29-16.637-9.163-25.7-11.903v24.302
	c4.676,1.843,9.036,4.058,12.924,6.688c13.535,9.339,22.391,22.338,23.204,44.935c0.05,1.746,0.084,3.42,0.084,4.98
	c-0.282,31.872-7.532,43.328-16.414,59.398c-9.15,15.868-19.62,36.016-19.374,73.474c0.05,43.472-7.323,68.942-15.348,82.429
	c-4.336,7.223-8.538,11.112-12.116,13.203c2.335-4.83,4.972-10.263,5.828-12.288c14.956-35.73,18.929-71.817,9.718-108.737
	c-6.755-27.076,3.369-45.853,12.968-71.532c4.215-11.248,11.52-24.311,11.471-36.373c-0.053-14.078-4.538-25.944-12.941-33.266
	v9.621c4.13,4.544,6.832,11.66,6.967,22.505c-3.439,17.643-32.154,78.258-24.118,102.908
	c17.686,77.706-15.552,118.794-16.611,128.08c-0.858-5.59,4.159-43.543,3.752-71.811c-1.072-23.579-6.276-39.001-15.306-50.963
	c-11.302-14.993-17.861-22.365-33.646-27.077c-16.131-4.807-30.632-0.8-42.129,9.466c-10.911,9.737-24.251,31.917-31.171,44.493
	c-1.916,3.47-3.742,6.979-5.881,10.995c-0.771-4.199-0.771-4.199-0.26-5.847c4.419-14.318,12.045-27.238,18.734-40.632
	c6.434-12.859,13.451-21.22,29.361-22.461c8.795-0.688,13.172-11.142,9.906-19.331c-0.319-0.81-1.143-1.902-1.887-2.023
	c-1.579-0.251-2.441,1.112-2.277,2.336c2.021,15.145-9.906,15.506-20.406,17.335c-6.36,1.104-10.688-2.098-12.099-9.099
	c-1.155-5.716,3.186-7.684,7.713-8.278c12.812-1.673,17.81-9.977,20.498-20.5c0.429-1.675,0.912-3.719-1.403-4.429
	c-2.343-0.721-3.554,1.146-3.685,2.841c-1.208,15.389-15.396,16.101-26.041,20.765c-2.519,1.104-3.196-0.891-3.615-2.612
	c-0.924-3.824,0.326-7.287,2.074-10.711c1.81-3.551,3.581-7.148,4.945-10.859c0.644-1.746,1.035-4.36-1.452-5.164
	c-2.546-0.825-2.618,1.763-3.231,3.234c-1.1,2.627-2.538,3.754-5.159,1.495c-4.712-4.066-11.34-6.588-12.153-13.793
	c-0.168-1.491-1.001-3.055-2.971-2.795c-2.374,0.307-2.596,2.233-2.415,3.993c0.44,4.42,2.476,8.308,6.379,10.633
	c7.905,4.702,11.739,10.317,9.033,19.696c-1.779,6.17,1.05,12.219,5.179,17.33c7.735,9.587,6.823,19.097,0.342,28.911
	c-4.65,7.042-8.794,14.388-13.667,21.448c1.331-10.28,3.312-20.359,3.301-30.717c-0.007-13.699-3.458-26.436-9.714-38.607
	c-3.083-6.012-6.325-11.939-8.115-18.456c-3.899-14.209,6.061-24.846,21.463-22.667c8.094,1.138,15.495,4.313,22.645,8.006
	c4.124,2.13,8.258,4.247,12.433,6.29c14.441,7.038,28.59,8.102,43.112-0.438c8.416-4.948,16.755-44.224,26.561-46.159
	c0.849-0.166,1.939-0.441,3.216-0.775v-10.626c-8.188,2.463-17.116,5.838-22.918,8.218c-23.385,9.6-30.976,13.69-54.874,4.773
	c-3.154-1.177-19.903-9.289-23.112-10.343c-14.376-4.711-30.757-5.969-41.947,4.585c-11.723,11.061-15.728,21.629-12.125,42.928
	c2.791,16.48,12.973,30.711,19.566,46.06c12.129,28.215,20.855,61.082,13.042,90.657c-0.541,2.04-1.02,4.083-1.477,6.13
	c-0.149,0.659-0.276,1.317-0.414,1.98c-0.292,1.389-0.567,2.788-0.82,4.178c-0.135,0.749-0.26,1.503-0.387,2.252
	c-0.223,1.352-0.426,2.693-0.614,4.04c-0.095,0.717-0.204,1.433-0.291,2.144c-0.2,1.596-0.143-0.813-0.295,0.782
	c-0.039,0.44-0.092,0.882-0.135,1.322c-0.172,2.009-0.302,4.015-0.399,6.023c-0.023,0.588-0.038,1.188-0.061,1.782
	c-0.054,1.433-0.096,2.877-0.108,4.313c-0.011,0.735-0.007,1.476-0.003,2.207c0.003,1.327,0.02,2.646,0.058,3.968
	c0.02,0.735,0.034,1.477,0.066,2.212c0.057,1.438,0.138,2.873,0.23,4.303c0.042,0.581,0.069,1.171,0.11,1.756
	c0.151,1.994,0.33,3.979,0.549,5.968c0.049,0.45,0.115,0.899,0.165,1.35c0.184,1.562,0.383,3.122,0.606,4.685
	c0.099,0.717,0.214,1.426,0.321,2.135c0.119,0.766,0.253,1.523,0.379,2.285c-7.85-13.678-14.966-38.975-14.916-81.673
	c0.248-37.438-10.224-57.607-19.356-73.462c-8.871-16.071-16.147-27.544-16.408-59.418c0-1.529,0.031-3.203,0.065-4.997
	c0.805-22.575,9.676-35.582,23.208-44.908c10.319-6.98,23.872-11.125,38.132-12.715l24.094-0.319
	c13.984,1.082,27.133,4.267,36.556,8.553l4.73,2.131l4.708-2.12c11.123-5.048,27.359-8.634,44.072-8.97v-22.97
	c-17.74,0.336-34.743,3.561-48.783,9.02c-14.782-5.754-32.837-9.02-51.591-9.055c-22.3,0.039-45.688,4.678-64.695,17.351
	c-19.087,12.52-32.837,34.31-33.39,63.392v0.122c-0.034,1.786-0.049,3.608-0.068,5.478c-0.25,35.746,10.343,55.056,19.355,70.684
	c8.745,15.857,16.147,28.34,16.401,62.197c0.042,45.943,7.487,75.219,18.528,94.083c10.853,18.73,26.298,26.846,39.291,26.846h0.233
	c3.642,0,7.047-0.57,10.236-1.739c4.865-1.757,8.557-5.512,10.631-9.181c2.131-3.728,3.217-7.489,4.002-11.384
	c1.515-7.767,1.768-16.389,2.014-25.931c0.402-18.973,0.648-41.39,6.379-60.363c2.407-8.156,5.355-16.794,9.262-22.574
	c3.983-5.64,7.261-8.277,13.41-8.977c6.145,0.7,9.414,3.337,13.405,8.977c3.896,5.78,6.852,14.418,9.254,22.574
	c7.62,25.028,5.396,55.459,7.151,77.184c0.729,7.379,1.587,13.964,5.249,20.494c2.075,3.669,5.759,7.424,10.711,9.203
	c3.091,1.119,6.51,1.714,10.155,1.714c13.034,0.092,28.609-8.008,39.535-26.848c11.032-18.865,18.467-48.14,18.52-94.081
	c0.241-33.859,7.651-46.341,16.397-62.2c9.005-15.615,19.635-34.94,19.371-70.684C390.539,236.619,390.5,234.751,390.45,232.877z
	 M294.359,465.476c-0.988-4.795-1.38-12.699-1.587-21.97c-0.475-18.682-0.372-43.063-7.333-66.404
	c-2.576-8.498-5.784-19.086-12.121-28.697c-6.116-9.568-17.078-18.512-31.833-19.247l-0.708-0.037l-0.69,0.037
	c-14.767,0.731-25.727,9.675-31.827,19.247c-6.344,9.611-9.549,20.201-12.137,28.697c-9.094,30.658-6.264,63.637-8.07,82.025
	c-0.364,4.972-1.311,8.692-1.898,10.108c-0.365,0.052-0.805,0.092-1.307,0.092c-1.165-0.028-2.68-0.23-4.443-0.845
	c-2.407-25.077-4.581-63.198,4.172-84.926c12.935-32.119,30.667-58.187,52.623-61.074c11.317-1.49,21.832,3.444,28.225,8.115
	c11.16,8.153,24.248,29.233,27.774,42.14c6.566,24.048,7.95,55.912,3.926,79.988C296.69,455.317,295.456,460.738,294.359,465.476z"
	/>
<path d="M300.422,97.237c0,0,0.748,110.229-5.049,174.536c-5.797,64.308,0.89,65.379,5.049,88.423
	c4.16,23.044,7.871,58.943,2.553,80.383c-5.319,21.438-5.319,21.438-5.319,21.438s10.144-15.006,12.286-57.342
	c2.143-42.335-7.781-47.565-9.519-82.463c-1.737-34.896,7.599-110.457,7.599-110.457l2.221-114.516h-9.82V97.237z"/>
</svg>
