<?xml version="1.0" encoding="utf-8"?>
<!-- Generator: Adobe Illustrator 16.0.0, SVG Export Plug-In . SVG Version: 6.00 Build 0)  -->
<!DOCTYPE svg PUBLIC "-//W3C//DTD SVG 1.1//EN" "http://www.w3.org/Graphics/SVG/1.1/DTD/svg11.dtd">
<svg version="1.1" id="Capa_1" xmlns="http://www.w3.org/2000/svg" xmlns:xlink="http://www.w3.org/1999/xlink" x="0px" y="0px"
	 width="695.279px" height="841.891px" viewBox="0 0 695.279 841.891" enable-background="new 0 0 695.279 841.891"
	 xml:space="preserve">
<g>
	<path d="M249.605,268.268l15.484-9.73c0.387-0.242,0.824-0.366,1.301-0.366c0.646,0,1.504,0.257,2.054,0.963l58.866,106.388
		l0.282,0.461c4.279,6.381,11.481,10.041,19.761,10.041c3.302,0,6.638-0.614,9.62-1.76l71.092-26.941
		c1.575-0.604,3.227-0.912,4.907-0.912c3.909,0,7.564,1.702,9.78,4.555l57.814,69.205c2.636,3.074,6.708,4.984,10.626,4.982
		c5.675,0,11.399-4.076,11.399-13.215l-0.218-44.696c-0.035-6.222-3.05-14.533-7.007-19.329l-46.989-56.882
		c-4.715-6.051-13.154-9.808-22.058-9.808c-3.799,0-7.594,0.655-11.426,2.003l-67.464,25.537l-0.223,0.09
		c-5.401,2.286-10.681,0.439-13.862-4.592l-37.311-74.306l-0.373-0.645c-0.408-0.619-0.392-1.22-0.307-1.613
		c0.072-0.323,0.289-0.932,0.95-1.348l12.938-8.132c4.041-2.535,6.131-6.239,5.732-10.155c-0.398-3.917-3.188-7.123-7.66-8.798
		l-69.785-26.121c-1.627-0.608-3.288-0.917-4.936-0.917c-6.615,0-11.869,4.994-12.491,11.874l-6.738,74.204
		c-0.424,4.667,1.196,7.518,2.63,9.088C239.218,270.922,244.671,271.37,249.605,268.268z"/>
	<path d="M551.453,550.058l-9.164,0.007v-68.133c0-15.612-12.79-28.9-28.402-28.9h-3.362c-15.612,0-28.789,13.288-28.789,28.9
		v68.178l-29.232,0.023v-128.34c0-15.613-11.277-29.316-26.89-29.316h-3.359c-15.613,0-28.217,13.703-28.217,29.316v128.384
		l-29.231,0.021V459.03c0-15.612-11.855-28.97-27.465-28.97h-3.36c-15.613,0-29.727,13.357-29.727,28.97v91.214l-27.144,0.021
		V358.321c0-15.035-11.96-26.396-26.998-26.396h-5.447c-15.038,0-28.109,11.358-28.109,26.396v191.995l-33.409,0.027V206.305
		c0-22.519-18.225-40.841-39.671-40.841s-39.673,18.323-39.673,40.841v380.699c0,22.519,19.858,41.422,42.377,41.422h405.238
		c22.521,0,40.862-17.739,40.862-39.184C592.28,567.797,573.982,550.058,551.453,550.058z"/>
</g>
</svg>
